G04 #@! TF.GenerationSoftware,KiCad,Pcbnew,(5.1.7)-1*
G04 #@! TF.CreationDate,2020-11-17T18:58:21-06:00*
G04 #@! TF.ProjectId,RFB,5246422e-6b69-4636-9164-5f7063625858,rev?*
G04 #@! TF.SameCoordinates,Original*
G04 #@! TF.FileFunction,Paste,Top*
G04 #@! TF.FilePolarity,Positive*
%FSLAX46Y46*%
G04 Gerber Fmt 4.6, Leading zero omitted, Abs format (unit mm)*
G04 Created by KiCad (PCBNEW (5.1.7)-1) date 2020-11-17 18:58:21*
%MOMM*%
%LPD*%
G01*
G04 APERTURE LIST*
%ADD10C,0.010000*%
%ADD11R,0.558800X0.660400*%
%ADD12R,1.210000X1.860000*%
%ADD13R,1.210000X1.770000*%
%ADD14R,1.730000X0.970000*%
%ADD15R,1.770000X1.210000*%
%ADD16R,1.800000X1.150000*%
%ADD17R,1.860000X1.210000*%
%ADD18R,0.660400X0.558800*%
%ADD19R,0.965200X0.939800*%
%ADD20R,0.900000X1.300000*%
%ADD21R,0.890000X1.110000*%
%ADD22R,0.380000X0.400000*%
%ADD23R,0.600000X0.250000*%
%ADD24R,0.250000X0.600000*%
%ADD25R,1.000000X1.800000*%
%ADD26R,1.400000X1.200000*%
G04 APERTURE END LIST*
D10*
G04 #@! TO.C,TxRxMCU1*
G36*
X126146400Y-68640800D02*
G01*
X124656400Y-68640800D01*
X124656400Y-67150800D01*
X126146400Y-67150800D01*
X126146400Y-68640800D01*
G37*
X126146400Y-68640800D02*
X124656400Y-68640800D01*
X124656400Y-67150800D01*
X126146400Y-67150800D01*
X126146400Y-68640800D01*
G36*
X124456400Y-68640800D02*
G01*
X122966400Y-68640800D01*
X122966400Y-67150800D01*
X124456400Y-67150800D01*
X124456400Y-68640800D01*
G37*
X124456400Y-68640800D02*
X122966400Y-68640800D01*
X122966400Y-67150800D01*
X124456400Y-67150800D01*
X124456400Y-68640800D01*
G36*
X126146400Y-66950800D02*
G01*
X124656400Y-66950800D01*
X124656400Y-65460800D01*
X126146400Y-65460800D01*
X126146400Y-66950800D01*
G37*
X126146400Y-66950800D02*
X124656400Y-66950800D01*
X124656400Y-65460800D01*
X126146400Y-65460800D01*
X126146400Y-66950800D01*
G36*
X124456400Y-66950800D02*
G01*
X122966400Y-66950800D01*
X122966400Y-65460800D01*
X124456400Y-65460800D01*
X124456400Y-66950800D01*
G37*
X124456400Y-66950800D02*
X122966400Y-66950800D01*
X122966400Y-65460800D01*
X124456400Y-65460800D01*
X124456400Y-66950800D01*
G04 #@! TD*
D11*
G04 #@! TO.C,C16*
X129070400Y-62687900D03*
X129070400Y-61595700D03*
G04 #@! TD*
G04 #@! TO.C,C15*
X134912400Y-61595700D03*
X134912400Y-62687900D03*
G04 #@! TD*
D12*
G04 #@! TO.C,C1*
X112919400Y-70510800D03*
X115873400Y-70510800D03*
G04 #@! TD*
G04 #@! TO.C,C2*
X116868400Y-67745800D03*
X113914400Y-67745800D03*
G04 #@! TD*
G04 #@! TO.C,C3*
X115873400Y-73290800D03*
X112919400Y-73290800D03*
G04 #@! TD*
D13*
G04 #@! TO.C,C4*
X112938400Y-78770800D03*
X115794400Y-78770800D03*
G04 #@! TD*
D14*
G04 #@! TO.C,C5*
X124890400Y-55650800D03*
X124890400Y-58610800D03*
G04 #@! TD*
D12*
G04 #@! TO.C,C6*
X112909400Y-76060800D03*
X115863400Y-76060800D03*
G04 #@! TD*
D11*
G04 #@! TO.C,C7*
X126786400Y-78134700D03*
X126786400Y-79226900D03*
G04 #@! TD*
G04 #@! TO.C,C8*
X124236400Y-79226900D03*
X124236400Y-78134700D03*
G04 #@! TD*
D15*
G04 #@! TO.C,C9*
X111572400Y-65164800D03*
X111572400Y-68020800D03*
G04 #@! TD*
D16*
G04 #@! TO.C,C10*
X130909060Y-71882260D03*
X130909060Y-68882260D03*
G04 #@! TD*
D17*
G04 #@! TO.C,C11*
X108916400Y-65093800D03*
X108916400Y-68047800D03*
G04 #@! TD*
D16*
G04 #@! TO.C,C12*
X137634980Y-68877180D03*
X137634980Y-71877180D03*
G04 #@! TD*
D17*
G04 #@! TO.C,C13*
X106201400Y-67982800D03*
X106201400Y-65028800D03*
G04 #@! TD*
D18*
G04 #@! TO.C,C14*
X139928900Y-68875000D03*
X141021100Y-68875000D03*
G04 #@! TD*
D19*
G04 #@! TO.C,L1*
X115740700Y-81220800D03*
X114242100Y-81220800D03*
G04 #@! TD*
D20*
G04 #@! TO.C,L2*
X115016400Y-65270800D03*
X113566400Y-65270800D03*
G04 #@! TD*
D21*
G04 #@! TO.C,L3*
X131215200Y-66598800D03*
X132843200Y-66598800D03*
G04 #@! TD*
G04 #@! TO.C,L4*
X135075860Y-68874640D03*
X133447860Y-68874640D03*
G04 #@! TD*
D22*
G04 #@! TO.C,R1*
X118103400Y-70474800D03*
X117541400Y-70474800D03*
G04 #@! TD*
D23*
G04 #@! TO.C,TxRxMCU1*
X122156400Y-68800800D03*
X122156400Y-68300800D03*
X122156400Y-67800800D03*
X122156400Y-67300800D03*
X122156400Y-66800800D03*
X122156400Y-66300800D03*
X122156400Y-65800800D03*
X122156400Y-65300800D03*
X126956400Y-65300800D03*
X126956400Y-65800800D03*
X126956400Y-66300800D03*
X126956400Y-66800800D03*
X126956400Y-67300800D03*
X126956400Y-67800800D03*
X126956400Y-68300800D03*
X126956400Y-68800800D03*
D24*
X126306400Y-69450800D03*
X125806400Y-69450800D03*
X125306400Y-69450800D03*
X124806400Y-69450800D03*
X124306400Y-69450800D03*
X123806400Y-69450800D03*
X123306400Y-69450800D03*
X122806400Y-69450800D03*
X122806400Y-64650800D03*
X123306400Y-64650800D03*
X123806400Y-64650800D03*
X124306400Y-64650800D03*
X124806400Y-64650800D03*
X125306400Y-64650800D03*
X125806400Y-64650800D03*
X126306400Y-64650800D03*
G04 #@! TD*
D25*
G04 #@! TO.C,Y1*
X126786400Y-76130800D03*
X124286400Y-76130800D03*
G04 #@! TD*
D26*
G04 #@! TO.C,Y2*
X133048400Y-61303800D03*
X130848400Y-61303800D03*
X130848400Y-62903800D03*
X133048400Y-62903800D03*
G04 #@! TD*
M02*
