G04 #@! TF.GenerationSoftware,KiCad,Pcbnew,(5.1.7)-1*
G04 #@! TF.CreationDate,2020-11-17T18:58:21-06:00*
G04 #@! TF.ProjectId,RFB,5246422e-6b69-4636-9164-5f7063625858,rev?*
G04 #@! TF.SameCoordinates,Original*
G04 #@! TF.FileFunction,Legend,Top*
G04 #@! TF.FilePolarity,Positive*
%FSLAX46Y46*%
G04 Gerber Fmt 4.6, Leading zero omitted, Abs format (unit mm)*
G04 Created by KiCad (PCBNEW (5.1.7)-1) date 2020-11-17 18:58:21*
%MOMM*%
%LPD*%
G01*
G04 APERTURE LIST*
%ADD10C,0.127000*%
%ADD11C,0.200000*%
%ADD12C,0.012700*%
%ADD13C,0.150000*%
%ADD14C,0.015000*%
%ADD15C,0.017780*%
G04 APERTURE END LIST*
D10*
G04 #@! TO.C,C1*
X114946400Y-71440800D02*
X113846400Y-71440800D01*
X114946400Y-69580800D02*
X113846400Y-69580800D01*
G04 #@! TO.C,C2*
X115941400Y-66815800D02*
X114841400Y-66815800D01*
X115941400Y-68675800D02*
X114841400Y-68675800D01*
G04 #@! TO.C,C3*
X114946400Y-72360800D02*
X113846400Y-72360800D01*
X114946400Y-74220800D02*
X113846400Y-74220800D01*
G04 #@! TO.C,C4*
X114866400Y-79650800D02*
X113866400Y-79650800D01*
X114866400Y-77890800D02*
X113866400Y-77890800D01*
G04 #@! TO.C,C5*
X124040400Y-57800800D02*
X124040400Y-56460800D01*
X125740400Y-57800800D02*
X125740400Y-56460800D01*
G04 #@! TO.C,C6*
X114936400Y-76990800D02*
X113836400Y-76990800D01*
X114936400Y-75130800D02*
X113836400Y-75130800D01*
G04 #@! TO.C,C9*
X110692400Y-66092800D02*
X110692400Y-67092800D01*
X112452400Y-66092800D02*
X112452400Y-67092800D01*
G04 #@! TO.C,C11*
X107986400Y-66020800D02*
X107986400Y-67120800D01*
X109846400Y-66020800D02*
X109846400Y-67120800D01*
G04 #@! TO.C,C13*
X107131400Y-65955800D02*
X107131400Y-67055800D01*
X105271400Y-65955800D02*
X105271400Y-67055800D01*
D11*
G04 #@! TO.C,TxRxMCU1*
X127951400Y-69100800D02*
G75*
G03*
X127951400Y-69100800I-100000J0D01*
G01*
D10*
X122056400Y-64550800D02*
X122351400Y-64550800D01*
X122056400Y-69550800D02*
X122351400Y-69550800D01*
X127056400Y-64550800D02*
X126761400Y-64550800D01*
X127056400Y-69550800D02*
X126761400Y-69550800D01*
X122056400Y-64550800D02*
X122056400Y-64845800D01*
X122056400Y-69550800D02*
X122056400Y-69255800D01*
X127056400Y-64550800D02*
X127056400Y-64845800D01*
X127056400Y-69550800D02*
X127056400Y-69255800D01*
G04 #@! TO.C,C16*
D12*
X127806471Y-62386728D02*
X127824614Y-62404871D01*
X127842757Y-62459300D01*
X127842757Y-62495585D01*
X127824614Y-62550014D01*
X127788328Y-62586300D01*
X127752042Y-62604442D01*
X127679471Y-62622585D01*
X127625042Y-62622585D01*
X127552471Y-62604442D01*
X127516185Y-62586300D01*
X127479900Y-62550014D01*
X127461757Y-62495585D01*
X127461757Y-62459300D01*
X127479900Y-62404871D01*
X127498042Y-62386728D01*
X127842757Y-62023871D02*
X127842757Y-62241585D01*
X127842757Y-62132728D02*
X127461757Y-62132728D01*
X127516185Y-62169014D01*
X127552471Y-62205300D01*
X127570614Y-62241585D01*
X127461757Y-61697300D02*
X127461757Y-61769871D01*
X127479900Y-61806157D01*
X127498042Y-61824300D01*
X127552471Y-61860585D01*
X127625042Y-61878728D01*
X127770185Y-61878728D01*
X127806471Y-61860585D01*
X127824614Y-61842442D01*
X127842757Y-61806157D01*
X127842757Y-61733585D01*
X127824614Y-61697300D01*
X127806471Y-61679157D01*
X127770185Y-61661014D01*
X127679471Y-61661014D01*
X127643185Y-61679157D01*
X127625042Y-61697300D01*
X127606900Y-61733585D01*
X127606900Y-61806157D01*
X127625042Y-61842442D01*
X127643185Y-61860585D01*
X127679471Y-61878728D01*
X130512757Y-62550014D02*
X130512757Y-62767728D01*
X130512757Y-62658871D02*
X130131757Y-62658871D01*
X130186185Y-62695157D01*
X130222471Y-62731442D01*
X130240614Y-62767728D01*
X130168042Y-62404871D02*
X130149900Y-62386728D01*
X130131757Y-62350442D01*
X130131757Y-62259728D01*
X130149900Y-62223442D01*
X130168042Y-62205300D01*
X130204328Y-62187157D01*
X130240614Y-62187157D01*
X130295042Y-62205300D01*
X130512757Y-62423014D01*
X130512757Y-62187157D01*
X130258757Y-62023871D02*
X130639757Y-62023871D01*
X130276900Y-62023871D02*
X130258757Y-61987585D01*
X130258757Y-61915014D01*
X130276900Y-61878728D01*
X130295042Y-61860585D01*
X130331328Y-61842442D01*
X130440185Y-61842442D01*
X130476471Y-61860585D01*
X130494614Y-61878728D01*
X130512757Y-61915014D01*
X130512757Y-61987585D01*
X130494614Y-62023871D01*
X130313185Y-61552157D02*
X130313185Y-61679157D01*
X130512757Y-61679157D02*
X130131757Y-61679157D01*
X130131757Y-61497728D01*
D13*
X128522780Y-62141800D02*
X128760876Y-62141800D01*
X128665638Y-62379895D02*
X128760876Y-62141800D01*
X128665638Y-61903704D01*
X128951352Y-62284657D02*
X128760876Y-62141800D01*
X128951352Y-61998942D01*
G04 #@! TO.C,C15*
D12*
X136448471Y-62386728D02*
X136466614Y-62404871D01*
X136484757Y-62459300D01*
X136484757Y-62495585D01*
X136466614Y-62550014D01*
X136430328Y-62586300D01*
X136394042Y-62604442D01*
X136321471Y-62622585D01*
X136267042Y-62622585D01*
X136194471Y-62604442D01*
X136158185Y-62586300D01*
X136121900Y-62550014D01*
X136103757Y-62495585D01*
X136103757Y-62459300D01*
X136121900Y-62404871D01*
X136140042Y-62386728D01*
X136484757Y-62023871D02*
X136484757Y-62241585D01*
X136484757Y-62132728D02*
X136103757Y-62132728D01*
X136158185Y-62169014D01*
X136194471Y-62205300D01*
X136212614Y-62241585D01*
X136103757Y-61679157D02*
X136103757Y-61860585D01*
X136285185Y-61878728D01*
X136267042Y-61860585D01*
X136248900Y-61824300D01*
X136248900Y-61733585D01*
X136267042Y-61697300D01*
X136285185Y-61679157D01*
X136321471Y-61661014D01*
X136412185Y-61661014D01*
X136448471Y-61679157D01*
X136466614Y-61697300D01*
X136484757Y-61733585D01*
X136484757Y-61824300D01*
X136466614Y-61860585D01*
X136448471Y-61878728D01*
X134026757Y-62550014D02*
X134026757Y-62767728D01*
X134026757Y-62658871D02*
X133645757Y-62658871D01*
X133700185Y-62695157D01*
X133736471Y-62731442D01*
X133754614Y-62767728D01*
X133682042Y-62404871D02*
X133663900Y-62386728D01*
X133645757Y-62350442D01*
X133645757Y-62259728D01*
X133663900Y-62223442D01*
X133682042Y-62205300D01*
X133718328Y-62187157D01*
X133754614Y-62187157D01*
X133809042Y-62205300D01*
X134026757Y-62423014D01*
X134026757Y-62187157D01*
X133772757Y-62023871D02*
X134153757Y-62023871D01*
X133790900Y-62023871D02*
X133772757Y-61987585D01*
X133772757Y-61915014D01*
X133790900Y-61878728D01*
X133809042Y-61860585D01*
X133845328Y-61842442D01*
X133954185Y-61842442D01*
X133990471Y-61860585D01*
X134008614Y-61878728D01*
X134026757Y-61915014D01*
X134026757Y-61987585D01*
X134008614Y-62023871D01*
X133827185Y-61552157D02*
X133827185Y-61679157D01*
X134026757Y-61679157D02*
X133645757Y-61679157D01*
X133645757Y-61497728D01*
D13*
X134364780Y-62141800D02*
X134602876Y-62141800D01*
X134507638Y-62379895D02*
X134602876Y-62141800D01*
X134507638Y-61903704D01*
X134793352Y-62284657D02*
X134602876Y-62141800D01*
X134793352Y-61998942D01*
G04 #@! TO.C,C1*
D14*
X114567007Y-70596416D02*
X114585755Y-70615164D01*
X114604502Y-70671407D01*
X114604502Y-70708902D01*
X114585755Y-70765145D01*
X114548259Y-70802641D01*
X114510764Y-70821388D01*
X114435773Y-70840136D01*
X114379530Y-70840136D01*
X114304540Y-70821388D01*
X114267044Y-70802641D01*
X114229549Y-70765145D01*
X114210801Y-70708902D01*
X114210801Y-70671407D01*
X114229549Y-70615164D01*
X114248297Y-70596416D01*
X114604502Y-70221463D02*
X114604502Y-70446435D01*
X114604502Y-70333949D02*
X114210801Y-70333949D01*
X114267044Y-70371444D01*
X114304540Y-70408940D01*
X114323287Y-70446435D01*
G04 #@! TO.C,C2*
X116016008Y-67671417D02*
X116034756Y-67690165D01*
X116053503Y-67746408D01*
X116053503Y-67783903D01*
X116034756Y-67840146D01*
X115997260Y-67877642D01*
X115959765Y-67896389D01*
X115884774Y-67915137D01*
X115828531Y-67915137D01*
X115753541Y-67896389D01*
X115716045Y-67877642D01*
X115678550Y-67840146D01*
X115659802Y-67783903D01*
X115659802Y-67746408D01*
X115678550Y-67690165D01*
X115697298Y-67671417D01*
X115697298Y-67521436D02*
X115678550Y-67502688D01*
X115659802Y-67465193D01*
X115659802Y-67371455D01*
X115678550Y-67333959D01*
X115697298Y-67315212D01*
X115734793Y-67296464D01*
X115772288Y-67296464D01*
X115828531Y-67315212D01*
X116053503Y-67540184D01*
X116053503Y-67296464D01*
G04 #@! TO.C,C3*
X114537007Y-73286416D02*
X114555755Y-73305164D01*
X114574502Y-73361407D01*
X114574502Y-73398902D01*
X114555755Y-73455145D01*
X114518259Y-73492641D01*
X114480764Y-73511388D01*
X114405773Y-73530136D01*
X114349530Y-73530136D01*
X114274540Y-73511388D01*
X114237044Y-73492641D01*
X114199549Y-73455145D01*
X114180801Y-73398902D01*
X114180801Y-73361407D01*
X114199549Y-73305164D01*
X114218297Y-73286416D01*
X114180801Y-73155183D02*
X114180801Y-72911463D01*
X114330783Y-73042697D01*
X114330783Y-72986454D01*
X114349530Y-72948958D01*
X114368278Y-72930211D01*
X114405773Y-72911463D01*
X114499512Y-72911463D01*
X114537007Y-72930211D01*
X114555755Y-72948958D01*
X114574502Y-72986454D01*
X114574502Y-73098940D01*
X114555755Y-73136435D01*
X114537007Y-73155183D01*
G04 #@! TO.C,C4*
X114350783Y-78911407D02*
X114332035Y-78930155D01*
X114275792Y-78948902D01*
X114238297Y-78948902D01*
X114182054Y-78930155D01*
X114144558Y-78892659D01*
X114125811Y-78855164D01*
X114107063Y-78780173D01*
X114107063Y-78723930D01*
X114125811Y-78648940D01*
X114144558Y-78611444D01*
X114182054Y-78573949D01*
X114238297Y-78555201D01*
X114275792Y-78555201D01*
X114332035Y-78573949D01*
X114350783Y-78592697D01*
X114688241Y-78686435D02*
X114688241Y-78948902D01*
X114594502Y-78536454D02*
X114500764Y-78817669D01*
X114744484Y-78817669D01*
G04 #@! TO.C,C5*
X124668782Y-57807408D02*
X124650034Y-57826156D01*
X124593791Y-57844903D01*
X124556296Y-57844903D01*
X124500053Y-57826156D01*
X124462557Y-57788660D01*
X124443810Y-57751165D01*
X124425062Y-57676174D01*
X124425062Y-57619931D01*
X124443810Y-57544941D01*
X124462557Y-57507445D01*
X124500053Y-57469950D01*
X124556296Y-57451202D01*
X124593791Y-57451202D01*
X124650034Y-57469950D01*
X124668782Y-57488698D01*
X125024987Y-57451202D02*
X124837511Y-57451202D01*
X124818763Y-57638679D01*
X124837511Y-57619931D01*
X124875006Y-57601184D01*
X124968744Y-57601184D01*
X125006240Y-57619931D01*
X125024987Y-57638679D01*
X125043735Y-57676174D01*
X125043735Y-57769913D01*
X125024987Y-57807408D01*
X125006240Y-57826156D01*
X124968744Y-57844903D01*
X124875006Y-57844903D01*
X124837511Y-57826156D01*
X124818763Y-57807408D01*
G04 #@! TO.C,C6*
X114617007Y-76136416D02*
X114635755Y-76155164D01*
X114654502Y-76211407D01*
X114654502Y-76248902D01*
X114635755Y-76305145D01*
X114598259Y-76342641D01*
X114560764Y-76361388D01*
X114485773Y-76380136D01*
X114429530Y-76380136D01*
X114354540Y-76361388D01*
X114317044Y-76342641D01*
X114279549Y-76305145D01*
X114260801Y-76248902D01*
X114260801Y-76211407D01*
X114279549Y-76155164D01*
X114298297Y-76136416D01*
X114260801Y-75798958D02*
X114260801Y-75873949D01*
X114279549Y-75911444D01*
X114298297Y-75930192D01*
X114354540Y-75967687D01*
X114429530Y-75986435D01*
X114579512Y-75986435D01*
X114617007Y-75967687D01*
X114635755Y-75948940D01*
X114654502Y-75911444D01*
X114654502Y-75836454D01*
X114635755Y-75798958D01*
X114617007Y-75780211D01*
X114579512Y-75761463D01*
X114485773Y-75761463D01*
X114448278Y-75780211D01*
X114429530Y-75798958D01*
X114410783Y-75836454D01*
X114410783Y-75911444D01*
X114429530Y-75948940D01*
X114448278Y-75967687D01*
X114485773Y-75986435D01*
G04 #@! TO.C,C7*
D12*
X127972471Y-78744300D02*
X127990614Y-78762442D01*
X128008757Y-78816871D01*
X128008757Y-78853157D01*
X127990614Y-78907585D01*
X127954328Y-78943871D01*
X127918042Y-78962014D01*
X127845471Y-78980157D01*
X127791042Y-78980157D01*
X127718471Y-78962014D01*
X127682185Y-78943871D01*
X127645900Y-78907585D01*
X127627757Y-78853157D01*
X127627757Y-78816871D01*
X127645900Y-78762442D01*
X127664042Y-78744300D01*
X127627757Y-78617300D02*
X127627757Y-78363300D01*
X128008757Y-78526585D01*
X125958757Y-79139014D02*
X125958757Y-79356728D01*
X125958757Y-79247871D02*
X125577757Y-79247871D01*
X125632185Y-79284157D01*
X125668471Y-79320442D01*
X125686614Y-79356728D01*
X125614042Y-78993871D02*
X125595900Y-78975728D01*
X125577757Y-78939442D01*
X125577757Y-78848728D01*
X125595900Y-78812442D01*
X125614042Y-78794300D01*
X125650328Y-78776157D01*
X125686614Y-78776157D01*
X125741042Y-78794300D01*
X125958757Y-79012014D01*
X125958757Y-78776157D01*
X125704757Y-78612871D02*
X126085757Y-78612871D01*
X125722900Y-78612871D02*
X125704757Y-78576585D01*
X125704757Y-78504014D01*
X125722900Y-78467728D01*
X125741042Y-78449585D01*
X125777328Y-78431442D01*
X125886185Y-78431442D01*
X125922471Y-78449585D01*
X125940614Y-78467728D01*
X125958757Y-78504014D01*
X125958757Y-78576585D01*
X125940614Y-78612871D01*
X125759185Y-78141157D02*
X125759185Y-78268157D01*
X125958757Y-78268157D02*
X125577757Y-78268157D01*
X125577757Y-78086728D01*
D13*
X126238780Y-78680800D02*
X126476876Y-78680800D01*
X126381638Y-78918895D02*
X126476876Y-78680800D01*
X126381638Y-78442704D01*
X126667352Y-78823657D02*
X126476876Y-78680800D01*
X126667352Y-78537942D01*
G04 #@! TO.C,C8*
D12*
X125522471Y-78744300D02*
X125540614Y-78762442D01*
X125558757Y-78816871D01*
X125558757Y-78853157D01*
X125540614Y-78907585D01*
X125504328Y-78943871D01*
X125468042Y-78962014D01*
X125395471Y-78980157D01*
X125341042Y-78980157D01*
X125268471Y-78962014D01*
X125232185Y-78943871D01*
X125195900Y-78907585D01*
X125177757Y-78853157D01*
X125177757Y-78816871D01*
X125195900Y-78762442D01*
X125214042Y-78744300D01*
X125341042Y-78526585D02*
X125322900Y-78562871D01*
X125304757Y-78581014D01*
X125268471Y-78599157D01*
X125250328Y-78599157D01*
X125214042Y-78581014D01*
X125195900Y-78562871D01*
X125177757Y-78526585D01*
X125177757Y-78454014D01*
X125195900Y-78417728D01*
X125214042Y-78399585D01*
X125250328Y-78381442D01*
X125268471Y-78381442D01*
X125304757Y-78399585D01*
X125322900Y-78417728D01*
X125341042Y-78454014D01*
X125341042Y-78526585D01*
X125359185Y-78562871D01*
X125377328Y-78581014D01*
X125413614Y-78599157D01*
X125486185Y-78599157D01*
X125522471Y-78581014D01*
X125540614Y-78562871D01*
X125558757Y-78526585D01*
X125558757Y-78454014D01*
X125540614Y-78417728D01*
X125522471Y-78399585D01*
X125486185Y-78381442D01*
X125413614Y-78381442D01*
X125377328Y-78399585D01*
X125359185Y-78417728D01*
X125341042Y-78454014D01*
X123358757Y-79139014D02*
X123358757Y-79356728D01*
X123358757Y-79247871D02*
X122977757Y-79247871D01*
X123032185Y-79284157D01*
X123068471Y-79320442D01*
X123086614Y-79356728D01*
X123014042Y-78993871D02*
X122995900Y-78975728D01*
X122977757Y-78939442D01*
X122977757Y-78848728D01*
X122995900Y-78812442D01*
X123014042Y-78794300D01*
X123050328Y-78776157D01*
X123086614Y-78776157D01*
X123141042Y-78794300D01*
X123358757Y-79012014D01*
X123358757Y-78776157D01*
X123104757Y-78612871D02*
X123485757Y-78612871D01*
X123122900Y-78612871D02*
X123104757Y-78576585D01*
X123104757Y-78504014D01*
X123122900Y-78467728D01*
X123141042Y-78449585D01*
X123177328Y-78431442D01*
X123286185Y-78431442D01*
X123322471Y-78449585D01*
X123340614Y-78467728D01*
X123358757Y-78504014D01*
X123358757Y-78576585D01*
X123340614Y-78612871D01*
X123159185Y-78141157D02*
X123159185Y-78268157D01*
X123358757Y-78268157D02*
X122977757Y-78268157D01*
X122977757Y-78086728D01*
D13*
X123688780Y-78680800D02*
X123926876Y-78680800D01*
X123831638Y-78918895D02*
X123926876Y-78680800D01*
X123831638Y-78442704D01*
X124117352Y-78823657D02*
X123926876Y-78680800D01*
X124117352Y-78537942D01*
G04 #@! TO.C,C9*
D14*
X111368784Y-66365406D02*
X111350036Y-66384154D01*
X111293793Y-66402901D01*
X111256298Y-66402901D01*
X111200055Y-66384154D01*
X111162559Y-66346658D01*
X111143812Y-66309163D01*
X111125064Y-66234172D01*
X111125064Y-66177929D01*
X111143812Y-66102939D01*
X111162559Y-66065443D01*
X111200055Y-66027948D01*
X111256298Y-66009200D01*
X111293793Y-66009200D01*
X111350036Y-66027948D01*
X111368784Y-66046696D01*
X111556260Y-66402901D02*
X111631251Y-66402901D01*
X111668746Y-66384154D01*
X111687494Y-66365406D01*
X111724989Y-66309163D01*
X111743737Y-66234172D01*
X111743737Y-66084191D01*
X111724989Y-66046696D01*
X111706242Y-66027948D01*
X111668746Y-66009200D01*
X111593756Y-66009200D01*
X111556260Y-66027948D01*
X111537513Y-66046696D01*
X111518765Y-66084191D01*
X111518765Y-66177929D01*
X111537513Y-66215425D01*
X111556260Y-66234172D01*
X111593756Y-66252920D01*
X111668746Y-66252920D01*
X111706242Y-66234172D01*
X111724989Y-66215425D01*
X111743737Y-66177929D01*
G04 #@! TO.C,C10*
D12*
X130614131Y-70968331D02*
X130595988Y-70986474D01*
X130541560Y-71004617D01*
X130505274Y-71004617D01*
X130450845Y-70986474D01*
X130414560Y-70950188D01*
X130396417Y-70913902D01*
X130378274Y-70841331D01*
X130378274Y-70786902D01*
X130396417Y-70714331D01*
X130414560Y-70678045D01*
X130450845Y-70641760D01*
X130505274Y-70623617D01*
X130541560Y-70623617D01*
X130595988Y-70641760D01*
X130614131Y-70659902D01*
X130976988Y-71004617D02*
X130759274Y-71004617D01*
X130868131Y-71004617D02*
X130868131Y-70623617D01*
X130831845Y-70678045D01*
X130795560Y-70714331D01*
X130759274Y-70732474D01*
X131212845Y-70623617D02*
X131249131Y-70623617D01*
X131285417Y-70641760D01*
X131303560Y-70659902D01*
X131321702Y-70696188D01*
X131339845Y-70768760D01*
X131339845Y-70859474D01*
X131321702Y-70932045D01*
X131303560Y-70968331D01*
X131285417Y-70986474D01*
X131249131Y-71004617D01*
X131212845Y-71004617D01*
X131176560Y-70986474D01*
X131158417Y-70968331D01*
X131140274Y-70932045D01*
X131122131Y-70859474D01*
X131122131Y-70768760D01*
X131140274Y-70696188D01*
X131158417Y-70659902D01*
X131176560Y-70641760D01*
X131212845Y-70623617D01*
G04 #@! TO.C,C11*
D14*
X108777307Y-66369406D02*
X108758559Y-66388154D01*
X108702316Y-66406901D01*
X108664821Y-66406901D01*
X108608578Y-66388154D01*
X108571083Y-66350658D01*
X108552335Y-66313163D01*
X108533587Y-66238172D01*
X108533587Y-66181929D01*
X108552335Y-66106939D01*
X108571083Y-66069443D01*
X108608578Y-66031948D01*
X108664821Y-66013200D01*
X108702316Y-66013200D01*
X108758559Y-66031948D01*
X108777307Y-66050696D01*
X109152260Y-66406901D02*
X108927288Y-66406901D01*
X109039774Y-66406901D02*
X109039774Y-66013200D01*
X109002279Y-66069443D01*
X108964784Y-66106939D01*
X108927288Y-66125686D01*
X109527214Y-66406901D02*
X109302242Y-66406901D01*
X109414728Y-66406901D02*
X109414728Y-66013200D01*
X109377232Y-66069443D01*
X109339737Y-66106939D01*
X109302242Y-66125686D01*
G04 #@! TO.C,C12*
D12*
X137390051Y-70913251D02*
X137371908Y-70931394D01*
X137317480Y-70949537D01*
X137281194Y-70949537D01*
X137226765Y-70931394D01*
X137190480Y-70895108D01*
X137172337Y-70858822D01*
X137154194Y-70786251D01*
X137154194Y-70731822D01*
X137172337Y-70659251D01*
X137190480Y-70622965D01*
X137226765Y-70586680D01*
X137281194Y-70568537D01*
X137317480Y-70568537D01*
X137371908Y-70586680D01*
X137390051Y-70604822D01*
X137752908Y-70949537D02*
X137535194Y-70949537D01*
X137644051Y-70949537D02*
X137644051Y-70568537D01*
X137607765Y-70622965D01*
X137571480Y-70659251D01*
X137535194Y-70677394D01*
X137898051Y-70604822D02*
X137916194Y-70586680D01*
X137952480Y-70568537D01*
X138043194Y-70568537D01*
X138079480Y-70586680D01*
X138097622Y-70604822D01*
X138115765Y-70641108D01*
X138115765Y-70677394D01*
X138097622Y-70731822D01*
X137879908Y-70949537D01*
X138115765Y-70949537D01*
G04 #@! TO.C,C13*
D14*
X105898306Y-66273407D02*
X105879558Y-66292155D01*
X105823315Y-66310902D01*
X105785820Y-66310902D01*
X105729577Y-66292155D01*
X105692082Y-66254659D01*
X105673334Y-66217164D01*
X105654586Y-66142173D01*
X105654586Y-66085930D01*
X105673334Y-66010940D01*
X105692082Y-65973444D01*
X105729577Y-65935949D01*
X105785820Y-65917201D01*
X105823315Y-65917201D01*
X105879558Y-65935949D01*
X105898306Y-65954697D01*
X106273259Y-66310902D02*
X106048287Y-66310902D01*
X106160773Y-66310902D02*
X106160773Y-65917201D01*
X106123278Y-65973444D01*
X106085783Y-66010940D01*
X106048287Y-66029687D01*
X106404493Y-65917201D02*
X106648213Y-65917201D01*
X106516979Y-66067183D01*
X106573222Y-66067183D01*
X106610717Y-66085930D01*
X106629465Y-66104678D01*
X106648213Y-66142173D01*
X106648213Y-66235912D01*
X106629465Y-66273407D01*
X106610717Y-66292155D01*
X106573222Y-66310902D01*
X106460736Y-66310902D01*
X106423241Y-66292155D01*
X106404493Y-66273407D01*
G04 #@! TO.C,C14*
D12*
X140230071Y-70036071D02*
X140211928Y-70054214D01*
X140157500Y-70072357D01*
X140121214Y-70072357D01*
X140066785Y-70054214D01*
X140030500Y-70017928D01*
X140012357Y-69981642D01*
X139994214Y-69909071D01*
X139994214Y-69854642D01*
X140012357Y-69782071D01*
X140030500Y-69745785D01*
X140066785Y-69709500D01*
X140121214Y-69691357D01*
X140157500Y-69691357D01*
X140211928Y-69709500D01*
X140230071Y-69727642D01*
X140592928Y-70072357D02*
X140375214Y-70072357D01*
X140484071Y-70072357D02*
X140484071Y-69691357D01*
X140447785Y-69745785D01*
X140411500Y-69782071D01*
X140375214Y-69800214D01*
X140919500Y-69818357D02*
X140919500Y-70072357D01*
X140828785Y-69673214D02*
X140738071Y-69945357D01*
X140973928Y-69945357D01*
X140066785Y-67997357D02*
X139849071Y-67997357D01*
X139957928Y-67997357D02*
X139957928Y-67616357D01*
X139921642Y-67670785D01*
X139885357Y-67707071D01*
X139849071Y-67725214D01*
X140211928Y-67652642D02*
X140230071Y-67634500D01*
X140266357Y-67616357D01*
X140357071Y-67616357D01*
X140393357Y-67634500D01*
X140411500Y-67652642D01*
X140429642Y-67688928D01*
X140429642Y-67725214D01*
X140411500Y-67779642D01*
X140193785Y-67997357D01*
X140429642Y-67997357D01*
X140592928Y-67743357D02*
X140592928Y-68124357D01*
X140592928Y-67761500D02*
X140629214Y-67743357D01*
X140701785Y-67743357D01*
X140738071Y-67761500D01*
X140756214Y-67779642D01*
X140774357Y-67815928D01*
X140774357Y-67924785D01*
X140756214Y-67961071D01*
X140738071Y-67979214D01*
X140701785Y-67997357D01*
X140629214Y-67997357D01*
X140592928Y-67979214D01*
X141064642Y-67797785D02*
X140937642Y-67797785D01*
X140937642Y-67997357D02*
X140937642Y-67616357D01*
X141119071Y-67616357D01*
D13*
X140475000Y-68327380D02*
X140475000Y-68565476D01*
X140236904Y-68470238D02*
X140475000Y-68565476D01*
X140713095Y-68470238D01*
X140332142Y-68755952D02*
X140475000Y-68565476D01*
X140617857Y-68755952D01*
G04 #@! TO.C,J1*
X108158066Y-78628180D02*
X108158066Y-79342466D01*
X108110447Y-79485323D01*
X108015209Y-79580561D01*
X107872352Y-79628180D01*
X107777114Y-79628180D01*
X109158066Y-79628180D02*
X108586638Y-79628180D01*
X108872352Y-79628180D02*
X108872352Y-78628180D01*
X108777114Y-78771038D01*
X108681876Y-78866276D01*
X108586638Y-78913895D01*
G04 #@! TO.C,L1*
D12*
X112879042Y-81367300D02*
X112879042Y-81185871D01*
X113260042Y-81185871D01*
X112879042Y-81693871D02*
X112879042Y-81476157D01*
X112879042Y-81585014D02*
X113260042Y-81585014D01*
X113205614Y-81548728D01*
X113169328Y-81512442D01*
X113151185Y-81476157D01*
X112908614Y-80011585D02*
X112963042Y-80029728D01*
X112981185Y-80047871D01*
X112999328Y-80084157D01*
X112999328Y-80138585D01*
X112981185Y-80174871D01*
X112963042Y-80193014D01*
X112926757Y-80211157D01*
X112781614Y-80211157D01*
X112781614Y-79830157D01*
X112908614Y-79830157D01*
X112944900Y-79848300D01*
X112963042Y-79866442D01*
X112981185Y-79902728D01*
X112981185Y-79939014D01*
X112963042Y-79975300D01*
X112944900Y-79993442D01*
X112908614Y-80011585D01*
X112781614Y-80011585D01*
X113344042Y-80211157D02*
X113162614Y-80211157D01*
X113162614Y-79830157D01*
X113471042Y-80211157D02*
X113471042Y-79830157D01*
X113598042Y-80102300D01*
X113725042Y-79830157D01*
X113725042Y-80211157D01*
X114106042Y-80211157D02*
X113888328Y-80211157D01*
X113997185Y-80211157D02*
X113997185Y-79830157D01*
X113960900Y-79884585D01*
X113924614Y-79920871D01*
X113888328Y-79939014D01*
X114323757Y-79993442D02*
X114287471Y-79975300D01*
X114269328Y-79957157D01*
X114251185Y-79920871D01*
X114251185Y-79902728D01*
X114269328Y-79866442D01*
X114287471Y-79848300D01*
X114323757Y-79830157D01*
X114396328Y-79830157D01*
X114432614Y-79848300D01*
X114450757Y-79866442D01*
X114468900Y-79902728D01*
X114468900Y-79920871D01*
X114450757Y-79957157D01*
X114432614Y-79975300D01*
X114396328Y-79993442D01*
X114323757Y-79993442D01*
X114287471Y-80011585D01*
X114269328Y-80029728D01*
X114251185Y-80066014D01*
X114251185Y-80138585D01*
X114269328Y-80174871D01*
X114287471Y-80193014D01*
X114323757Y-80211157D01*
X114396328Y-80211157D01*
X114432614Y-80193014D01*
X114450757Y-80174871D01*
X114468900Y-80138585D01*
X114468900Y-80066014D01*
X114450757Y-80029728D01*
X114432614Y-80011585D01*
X114396328Y-79993442D01*
X114632185Y-80211157D02*
X114632185Y-79830157D01*
X114632185Y-80011585D02*
X114849900Y-80011585D01*
X114849900Y-80211157D02*
X114849900Y-79830157D01*
X115031328Y-80011585D02*
X115158328Y-80011585D01*
X115212757Y-80211157D02*
X115031328Y-80211157D01*
X115031328Y-79830157D01*
X115212757Y-79830157D01*
X115575614Y-80211157D02*
X115357900Y-80211157D01*
X115466757Y-80211157D02*
X115466757Y-79830157D01*
X115430471Y-79884585D01*
X115394185Y-79920871D01*
X115357900Y-79939014D01*
X115920328Y-79830157D02*
X115738900Y-79830157D01*
X115720757Y-80011585D01*
X115738900Y-79993442D01*
X115775185Y-79975300D01*
X115865900Y-79975300D01*
X115902185Y-79993442D01*
X115920328Y-80011585D01*
X115938471Y-80047871D01*
X115938471Y-80138585D01*
X115920328Y-80174871D01*
X115902185Y-80193014D01*
X115865900Y-80211157D01*
X115775185Y-80211157D01*
X115738900Y-80193014D01*
X115720757Y-80174871D01*
X116083614Y-79866442D02*
X116101757Y-79848300D01*
X116138042Y-79830157D01*
X116228757Y-79830157D01*
X116265042Y-79848300D01*
X116283185Y-79866442D01*
X116301328Y-79902728D01*
X116301328Y-79939014D01*
X116283185Y-79993442D01*
X116065471Y-80211157D01*
X116301328Y-80211157D01*
X116446471Y-80193014D02*
X116500900Y-80211157D01*
X116591614Y-80211157D01*
X116627900Y-80193014D01*
X116646042Y-80174871D01*
X116664185Y-80138585D01*
X116664185Y-80102300D01*
X116646042Y-80066014D01*
X116627900Y-80047871D01*
X116591614Y-80029728D01*
X116519042Y-80011585D01*
X116482757Y-79993442D01*
X116464614Y-79975300D01*
X116446471Y-79939014D01*
X116446471Y-79902728D01*
X116464614Y-79866442D01*
X116482757Y-79848300D01*
X116519042Y-79830157D01*
X116609757Y-79830157D01*
X116664185Y-79848300D01*
X116827471Y-80211157D02*
X116827471Y-79830157D01*
X117045185Y-80211157D01*
X117045185Y-79830157D01*
D13*
X114991400Y-80673180D02*
X114991400Y-80911276D01*
X114753304Y-80816038D02*
X114991400Y-80911276D01*
X115229495Y-80816038D01*
X114848542Y-81101752D02*
X114991400Y-80911276D01*
X115134257Y-81101752D01*
G04 #@! TO.C,L2*
D15*
X114048042Y-65263300D02*
X114048042Y-65081871D01*
X114429042Y-65081871D01*
X114392757Y-65372157D02*
X114410900Y-65390300D01*
X114429042Y-65426585D01*
X114429042Y-65517300D01*
X114410900Y-65553585D01*
X114392757Y-65571728D01*
X114356471Y-65589871D01*
X114320185Y-65589871D01*
X114265757Y-65571728D01*
X114048042Y-65354014D01*
X114048042Y-65589871D01*
G04 #@! TO.C,L3*
D14*
X131913583Y-66776902D02*
X131726106Y-66776902D01*
X131726106Y-66383201D01*
X132007321Y-66383201D02*
X132251041Y-66383201D01*
X132119807Y-66533183D01*
X132176050Y-66533183D01*
X132213545Y-66551930D01*
X132232293Y-66570678D01*
X132251041Y-66608173D01*
X132251041Y-66701912D01*
X132232293Y-66739407D01*
X132213545Y-66758155D01*
X132176050Y-66776902D01*
X132063564Y-66776902D01*
X132026069Y-66758155D01*
X132007321Y-66739407D01*
G04 #@! TO.C,L4*
X134246243Y-69002742D02*
X134058766Y-69002742D01*
X134058766Y-68609041D01*
X134546205Y-68740275D02*
X134546205Y-69002742D01*
X134452467Y-68590294D02*
X134358729Y-68871509D01*
X134602448Y-68871509D01*
G04 #@! TO.C,R1*
X117136297Y-71425183D02*
X117323773Y-71293949D01*
X117136297Y-71200211D02*
X117529998Y-71200211D01*
X117529998Y-71350192D01*
X117511250Y-71387687D01*
X117492502Y-71406435D01*
X117455007Y-71425183D01*
X117398764Y-71425183D01*
X117361269Y-71406435D01*
X117342521Y-71387687D01*
X117323773Y-71350192D01*
X117323773Y-71200211D01*
X117136297Y-71800136D02*
X117136297Y-71575164D01*
X117136297Y-71687650D02*
X117529998Y-71687650D01*
X117473755Y-71650155D01*
X117436259Y-71612659D01*
X117417512Y-71575164D01*
G04 #@! TO.C,TxRxMCU1*
X121757066Y-70092704D02*
X122214209Y-70092704D01*
X121985638Y-70892704D02*
X121985638Y-70092704D01*
X122404685Y-70892704D02*
X122823733Y-70359371D01*
X122404685Y-70359371D02*
X122823733Y-70892704D01*
X123585638Y-70892704D02*
X123318971Y-70511752D01*
X123128495Y-70892704D02*
X123128495Y-70092704D01*
X123433257Y-70092704D01*
X123509447Y-70130800D01*
X123547542Y-70168895D01*
X123585638Y-70245085D01*
X123585638Y-70359371D01*
X123547542Y-70435561D01*
X123509447Y-70473657D01*
X123433257Y-70511752D01*
X123128495Y-70511752D01*
X123852304Y-70892704D02*
X124271352Y-70359371D01*
X123852304Y-70359371D02*
X124271352Y-70892704D01*
X124576114Y-70892704D02*
X124576114Y-70092704D01*
X124842780Y-70664133D01*
X125109447Y-70092704D01*
X125109447Y-70892704D01*
X125947542Y-70816514D02*
X125909447Y-70854609D01*
X125795161Y-70892704D01*
X125718971Y-70892704D01*
X125604685Y-70854609D01*
X125528495Y-70778419D01*
X125490400Y-70702228D01*
X125452304Y-70549847D01*
X125452304Y-70435561D01*
X125490400Y-70283180D01*
X125528495Y-70206990D01*
X125604685Y-70130800D01*
X125718971Y-70092704D01*
X125795161Y-70092704D01*
X125909447Y-70130800D01*
X125947542Y-70168895D01*
X126290400Y-70092704D02*
X126290400Y-70740323D01*
X126328495Y-70816514D01*
X126366590Y-70854609D01*
X126442780Y-70892704D01*
X126595161Y-70892704D01*
X126671352Y-70854609D01*
X126709447Y-70816514D01*
X126747542Y-70740323D01*
X126747542Y-70092704D01*
X127547542Y-70892704D02*
X127090400Y-70892704D01*
X127318971Y-70892704D02*
X127318971Y-70092704D01*
X127242780Y-70206990D01*
X127166590Y-70283180D01*
X127090400Y-70321276D01*
G04 #@! TO.C,Y1*
D12*
X125877328Y-76462228D02*
X126058757Y-76462228D01*
X125677757Y-76589228D02*
X125877328Y-76462228D01*
X125677757Y-76335228D01*
X126058757Y-76008657D02*
X126058757Y-76226371D01*
X126058757Y-76117514D02*
X125677757Y-76117514D01*
X125732185Y-76153800D01*
X125768471Y-76190085D01*
X125786614Y-76226371D01*
G04 #@! TO.C,Y2*
X131724971Y-62046728D02*
X131724971Y-62228157D01*
X131597971Y-61847157D02*
X131724971Y-62046728D01*
X131851971Y-61847157D01*
X131960828Y-61883442D02*
X131978971Y-61865300D01*
X132015257Y-61847157D01*
X132105971Y-61847157D01*
X132142257Y-61865300D01*
X132160400Y-61883442D01*
X132178542Y-61919728D01*
X132178542Y-61956014D01*
X132160400Y-62010442D01*
X131942685Y-62228157D01*
X132178542Y-62228157D01*
G04 #@! TO.C,J2*
D13*
X102763780Y-60569133D02*
X103478066Y-60569133D01*
X103620923Y-60616752D01*
X103716161Y-60711990D01*
X103763780Y-60854847D01*
X103763780Y-60950085D01*
X102859019Y-60140561D02*
X102811400Y-60092942D01*
X102763780Y-59997704D01*
X102763780Y-59759609D01*
X102811400Y-59664371D01*
X102859019Y-59616752D01*
X102954257Y-59569133D01*
X103049495Y-59569133D01*
X103192352Y-59616752D01*
X103763780Y-60188180D01*
X103763780Y-59569133D01*
G04 #@! TD*
M02*
