M48
; DRILL file {KiCad (5.1.7)-1} date 11/17/20 18:58:28
; FORMAT={-:-/ absolute / inch / decimal}
; #@! TF.CreationDate,2020-11-17T18:58:28-06:00
; #@! TF.GenerationSoftware,Kicad,Pcbnew,(5.1.7)-1
; #@! TF.FileFunction,Plated,1,2,PTH
FMAT,2
INCH
T1C0.0079
T2C0.0150
T3C0.0315
%
G90
G05
T1
X4.8457Y-2.6398
X4.9038Y-2.5817
X4.9038Y-2.6398
X4.9038Y-2.6979
X4.9619Y-2.6398
T2
X4.391Y-2.7754
X4.4632Y-2.5209
X4.6485Y-2.8152
X4.6642Y-2.6321
X4.676Y-2.8431
X4.7323Y-2.5861
X4.8583Y-2.8471
X4.8912Y-3.1729
X4.9056Y-2.8116
X4.9169Y-2.1349
X4.9335Y-2.5053
X4.9812Y-2.8116
X5.31Y-2.64
X5.34Y-2.64
X5.37Y-2.64
X5.4Y-2.64
X5.43Y-2.64
X5.46Y-2.64
X5.49Y-2.64
X5.49Y-2.76
X5.52Y-2.64
X5.52Y-2.76
X5.55Y-2.64
X5.55Y-2.76
X5.58Y-2.04
X5.58Y-2.07
X5.58Y-2.1
X5.58Y-2.13
X5.58Y-2.16
X5.58Y-2.19
X5.58Y-2.22
X5.58Y-2.25
X5.58Y-2.28
X5.58Y-2.31
X5.58Y-2.34
X5.58Y-2.37
X5.58Y-2.4
X5.58Y-2.43
X5.58Y-2.46
X5.58Y-2.49
X5.58Y-2.52
X5.58Y-2.55
X5.58Y-2.58
X5.58Y-2.61
X5.58Y-2.64
X5.58Y-2.76
X5.58Y-2.79
X5.58Y-2.82
X5.58Y-2.85
X5.58Y-2.88
X5.58Y-2.91
X5.58Y-2.94
X5.58Y-2.97
X5.58Y-3.0
X5.58Y-3.03
X5.58Y-3.06
X5.58Y-3.09
X5.58Y-3.12
X5.58Y-3.15
X5.58Y-3.18
X5.58Y-3.21
X5.58Y-3.24
X5.58Y-3.27
X5.58Y-3.3
X5.58Y-3.33
X5.58Y-3.36
X5.58Y-3.39
X5.58Y-3.42
X5.58Y-3.45
X5.657Y-2.978
T3
X4.1619Y-2.3715
X4.2619Y-2.3715
X4.3619Y-2.3715
X4.4619Y-2.3715
X4.5619Y-2.3715
X4.217Y-3.1975
X4.317Y-3.1975
T0
M30
