G04 #@! TF.GenerationSoftware,KiCad,Pcbnew,(5.1.7)-1*
G04 #@! TF.CreationDate,2020-11-17T18:58:21-06:00*
G04 #@! TF.ProjectId,RFB,5246422e-6b69-4636-9164-5f7063625858,rev?*
G04 #@! TF.SameCoordinates,Original*
G04 #@! TF.FileFunction,Copper,L1,Top*
G04 #@! TF.FilePolarity,Positive*
%FSLAX46Y46*%
G04 Gerber Fmt 4.6, Leading zero omitted, Abs format (unit mm)*
G04 Created by KiCad (PCBNEW (5.1.7)-1) date 2020-11-17 18:58:21*
%MOMM*%
%LPD*%
G01*
G04 APERTURE LIST*
G04 #@! TA.AperFunction,EtchedComponent*
%ADD10C,0.100000*%
G04 #@! TD*
G04 #@! TA.AperFunction,SMDPad,CuDef*
%ADD11R,0.558800X0.660400*%
G04 #@! TD*
G04 #@! TA.AperFunction,SMDPad,CuDef*
%ADD12R,1.210000X1.860000*%
G04 #@! TD*
G04 #@! TA.AperFunction,SMDPad,CuDef*
%ADD13R,1.210000X1.770000*%
G04 #@! TD*
G04 #@! TA.AperFunction,SMDPad,CuDef*
%ADD14R,1.730000X0.970000*%
G04 #@! TD*
G04 #@! TA.AperFunction,SMDPad,CuDef*
%ADD15R,1.770000X1.210000*%
G04 #@! TD*
G04 #@! TA.AperFunction,SMDPad,CuDef*
%ADD16R,1.800000X1.150000*%
G04 #@! TD*
G04 #@! TA.AperFunction,SMDPad,CuDef*
%ADD17R,1.860000X1.210000*%
G04 #@! TD*
G04 #@! TA.AperFunction,SMDPad,CuDef*
%ADD18R,0.660400X0.558800*%
G04 #@! TD*
G04 #@! TA.AperFunction,ComponentPad*
%ADD19C,2.000000*%
G04 #@! TD*
G04 #@! TA.AperFunction,SMDPad,CuDef*
%ADD20R,0.965200X0.939800*%
G04 #@! TD*
G04 #@! TA.AperFunction,SMDPad,CuDef*
%ADD21R,0.900000X1.300000*%
G04 #@! TD*
G04 #@! TA.AperFunction,SMDPad,CuDef*
%ADD22R,0.890000X1.110000*%
G04 #@! TD*
G04 #@! TA.AperFunction,SMDPad,CuDef*
%ADD23R,0.380000X0.400000*%
G04 #@! TD*
G04 #@! TA.AperFunction,ComponentPad*
%ADD24C,0.400000*%
G04 #@! TD*
G04 #@! TA.AperFunction,SMDPad,CuDef*
%ADD25R,3.450000X3.450000*%
G04 #@! TD*
G04 #@! TA.AperFunction,SMDPad,CuDef*
%ADD26R,0.600000X0.250000*%
G04 #@! TD*
G04 #@! TA.AperFunction,SMDPad,CuDef*
%ADD27R,0.250000X0.600000*%
G04 #@! TD*
G04 #@! TA.AperFunction,SMDPad,CuDef*
%ADD28R,1.000000X1.800000*%
G04 #@! TD*
G04 #@! TA.AperFunction,SMDPad,CuDef*
%ADD29R,1.400000X1.200000*%
G04 #@! TD*
G04 #@! TA.AperFunction,ViaPad*
%ADD30C,0.762000*%
G04 #@! TD*
G04 #@! TA.AperFunction,Conductor*
%ADD31C,0.203200*%
G04 #@! TD*
G04 #@! TA.AperFunction,Conductor*
%ADD32C,0.250000*%
G04 #@! TD*
G04 #@! TA.AperFunction,Conductor*
%ADD33C,0.520700*%
G04 #@! TD*
G04 #@! TA.AperFunction,Conductor*
%ADD34C,0.254000*%
G04 #@! TD*
G04 #@! TA.AperFunction,Conductor*
%ADD35C,0.100000*%
G04 #@! TD*
G04 APERTURE END LIST*
D10*
G04 #@! TO.C,      *
G36*
X145983960Y-72555100D02*
G01*
X145983960Y-73190100D01*
X149803960Y-73190100D01*
X149803960Y-74841100D01*
X145983960Y-74841100D01*
X145983960Y-75476100D01*
X148396960Y-75476100D01*
X148396960Y-75954100D01*
X145475960Y-75954100D01*
X145475960Y-74303100D01*
X149285960Y-74303100D01*
X149285960Y-73668100D01*
X145475960Y-73668100D01*
X145475960Y-71957100D01*
X149285960Y-71957100D01*
X149285960Y-71382100D01*
X145475960Y-71382100D01*
X145475960Y-69731100D01*
X149285960Y-69731100D01*
X149285960Y-69126100D01*
X143951960Y-69126100D01*
X143951960Y-75948100D01*
X143443960Y-75948100D01*
X143443960Y-69126100D01*
X142681960Y-69126100D01*
X142681960Y-68618100D01*
X149803360Y-68618100D01*
X149803360Y-70269100D01*
X145983960Y-70269100D01*
X145983960Y-70904100D01*
X149803960Y-70904100D01*
X149803960Y-72555100D01*
X145983960Y-72555100D01*
G37*
G04 #@! TD*
D11*
G04 #@! TO.P,C16,1*
G04 #@! TO.N,Net-(C16-Pad1)*
X129070400Y-62687900D03*
G04 #@! TO.P,C16,2*
G04 #@! TO.N,GND*
X129070400Y-61595700D03*
G04 #@! TD*
G04 #@! TO.P,C15,1*
G04 #@! TO.N,Net-(C15-Pad1)*
X134912400Y-61595700D03*
G04 #@! TO.P,C15,2*
G04 #@! TO.N,GND*
X134912400Y-62687900D03*
G04 #@! TD*
D12*
G04 #@! TO.P,C1,2*
G04 #@! TO.N,GND*
X112919400Y-70510800D03*
G04 #@! TO.P,C1,1*
G04 #@! TO.N,/VDDS*
X115873400Y-70510800D03*
G04 #@! TD*
G04 #@! TO.P,C2,1*
G04 #@! TO.N,/nRESET*
X116868400Y-67745800D03*
G04 #@! TO.P,C2,2*
G04 #@! TO.N,GND*
X113914400Y-67745800D03*
G04 #@! TD*
G04 #@! TO.P,C3,1*
G04 #@! TO.N,/VDDS*
X115873400Y-73290800D03*
G04 #@! TO.P,C3,2*
G04 #@! TO.N,GND*
X112919400Y-73290800D03*
G04 #@! TD*
D13*
G04 #@! TO.P,C4,2*
G04 #@! TO.N,GND*
X112938400Y-78770800D03*
G04 #@! TO.P,C4,1*
G04 #@! TO.N,/VDDS*
X115794400Y-78770800D03*
G04 #@! TD*
D14*
G04 #@! TO.P,C5,2*
G04 #@! TO.N,GND*
X124890400Y-55650800D03*
G04 #@! TO.P,C5,1*
G04 #@! TO.N,Net-(C5-Pad1)*
X124890400Y-58610800D03*
G04 #@! TD*
D12*
G04 #@! TO.P,C6,2*
G04 #@! TO.N,GND*
X112909400Y-76060800D03*
G04 #@! TO.P,C6,1*
G04 #@! TO.N,/VDDS*
X115863400Y-76060800D03*
G04 #@! TD*
D11*
G04 #@! TO.P,C7,1*
G04 #@! TO.N,Net-(C7-Pad1)*
X126786400Y-78134700D03*
G04 #@! TO.P,C7,2*
G04 #@! TO.N,GND*
X126786400Y-79226900D03*
G04 #@! TD*
G04 #@! TO.P,C8,2*
G04 #@! TO.N,GND*
X124236400Y-79226900D03*
G04 #@! TO.P,C8,1*
G04 #@! TO.N,Net-(C8-Pad1)*
X124236400Y-78134700D03*
G04 #@! TD*
D15*
G04 #@! TO.P,C9,1*
G04 #@! TO.N,/VDDR*
X111572400Y-65164800D03*
G04 #@! TO.P,C9,2*
G04 #@! TO.N,GND*
X111572400Y-68020800D03*
G04 #@! TD*
D16*
G04 #@! TO.P,C10,2*
G04 #@! TO.N,GND*
X130909060Y-71882260D03*
G04 #@! TO.P,C10,1*
G04 #@! TO.N,Net-(C10-Pad1)*
X130909060Y-68882260D03*
G04 #@! TD*
D17*
G04 #@! TO.P,C11,1*
G04 #@! TO.N,/VDDR*
X108916400Y-65093800D03*
G04 #@! TO.P,C11,2*
G04 #@! TO.N,GND*
X108916400Y-68047800D03*
G04 #@! TD*
D16*
G04 #@! TO.P,C12,1*
G04 #@! TO.N,Net-(C12-Pad1)*
X137634980Y-68877180D03*
G04 #@! TO.P,C12,2*
G04 #@! TO.N,GND*
X137634980Y-71877180D03*
G04 #@! TD*
D17*
G04 #@! TO.P,C13,2*
G04 #@! TO.N,GND*
X106201400Y-67982800D03*
G04 #@! TO.P,C13,1*
G04 #@! TO.N,/VDDR*
X106201400Y-65028800D03*
G04 #@! TD*
D18*
G04 #@! TO.P,C14,2*
G04 #@! TO.N,Net-(C12-Pad1)*
X139928900Y-68875000D03*
G04 #@! TO.P,C14,1*
G04 #@! TO.N,Net-(AE1-Pad1)*
X141021100Y-68875000D03*
G04 #@! TD*
D19*
G04 #@! TO.P,J1,1*
G04 #@! TO.N,GND*
X107111400Y-81215800D03*
G04 #@! TO.P,J1,2*
G04 #@! TO.N,/VDD_EB*
X109651400Y-81215800D03*
G04 #@! TD*
D20*
G04 #@! TO.P,L1,2*
G04 #@! TO.N,/VDDS*
X115740700Y-81220800D03*
G04 #@! TO.P,L1,1*
G04 #@! TO.N,/VDD_EB*
X114242100Y-81220800D03*
G04 #@! TD*
D21*
G04 #@! TO.P,L2,1*
G04 #@! TO.N,/DCDC_SW*
X115016400Y-65270800D03*
G04 #@! TO.P,L2,2*
G04 #@! TO.N,/VDDR*
X113566400Y-65270800D03*
G04 #@! TD*
D22*
G04 #@! TO.P,L3,1*
G04 #@! TO.N,Net-(L3-Pad1)*
X131215200Y-66598800D03*
G04 #@! TO.P,L3,2*
G04 #@! TO.N,Net-(C10-Pad1)*
X132843200Y-66598800D03*
G04 #@! TD*
G04 #@! TO.P,L4,2*
G04 #@! TO.N,Net-(C12-Pad1)*
X135075860Y-68874640D03*
G04 #@! TO.P,L4,1*
G04 #@! TO.N,Net-(C10-Pad1)*
X133447860Y-68874640D03*
G04 #@! TD*
D23*
G04 #@! TO.P,R1,2*
G04 #@! TO.N,/nRESET*
X118103400Y-70474800D03*
G04 #@! TO.P,R1,1*
G04 #@! TO.N,/VDDS*
X117541400Y-70474800D03*
G04 #@! TD*
D24*
G04 #@! TO.P,TxRxMCU1,38*
G04 #@! TO.N,GND*
X123081400Y-67050800D03*
G04 #@! TO.P,TxRxMCU1,37*
X124556400Y-65575800D03*
G04 #@! TO.P,TxRxMCU1,36*
X126031400Y-67050800D03*
G04 #@! TO.P,TxRxMCU1,35*
X124556400Y-68525800D03*
G04 #@! TO.P,TxRxMCU1,34*
X124556400Y-67050800D03*
D25*
G04 #@! TO.P,TxRxMCU1,33*
X124556400Y-67050800D03*
D26*
G04 #@! TO.P,TxRxMCU1,24*
G04 #@! TO.N,Net-(TxRxMCU1-Pad24)*
X122156400Y-68800800D03*
G04 #@! TO.P,TxRxMCU1,23*
G04 #@! TO.N,Net-(TxRxMCU1-Pad23)*
X122156400Y-68300800D03*
G04 #@! TO.P,TxRxMCU1,22*
G04 #@! TO.N,Net-(TxRxMCU1-Pad22)*
X122156400Y-67800800D03*
G04 #@! TO.P,TxRxMCU1,21*
G04 #@! TO.N,Net-(TxRxMCU1-Pad21)*
X122156400Y-67300800D03*
G04 #@! TO.P,TxRxMCU1,20*
G04 #@! TO.N,Net-(TxRxMCU1-Pad20)*
X122156400Y-66800800D03*
G04 #@! TO.P,TxRxMCU1,19*
G04 #@! TO.N,/nRESET*
X122156400Y-66300800D03*
G04 #@! TO.P,TxRxMCU1,18*
G04 #@! TO.N,/VDDS*
X122156400Y-65800800D03*
G04 #@! TO.P,TxRxMCU1,17*
G04 #@! TO.N,/DCDC_SW*
X122156400Y-65300800D03*
G04 #@! TO.P,TxRxMCU1,8*
G04 #@! TO.N,Net-(TxRxMCU1-Pad8)*
X126956400Y-65300800D03*
G04 #@! TO.P,TxRxMCU1,7*
G04 #@! TO.N,Net-(TxRxMCU1-Pad7)*
X126956400Y-65800800D03*
G04 #@! TO.P,TxRxMCU1,6*
G04 #@! TO.N,Net-(TxRxMCU1-Pad6)*
X126956400Y-66300800D03*
G04 #@! TO.P,TxRxMCU1,5*
G04 #@! TO.N,Net-(C15-Pad1)*
X126956400Y-66800800D03*
G04 #@! TO.P,TxRxMCU1,4*
G04 #@! TO.N,Net-(C16-Pad1)*
X126956400Y-67300800D03*
G04 #@! TO.P,TxRxMCU1,3*
G04 #@! TO.N,Net-(TxRxMCU1-Pad3)*
X126956400Y-67800800D03*
G04 #@! TO.P,TxRxMCU1,2*
G04 #@! TO.N,Net-(L3-Pad1)*
X126956400Y-68300800D03*
G04 #@! TO.P,TxRxMCU1,1*
G04 #@! TO.N,Net-(C10-Pad1)*
X126956400Y-68800800D03*
D27*
G04 #@! TO.P,TxRxMCU1,32*
G04 #@! TO.N,/VDDR*
X126306400Y-69450800D03*
G04 #@! TO.P,TxRxMCU1,31*
G04 #@! TO.N,Net-(C7-Pad1)*
X125806400Y-69450800D03*
G04 #@! TO.P,TxRxMCU1,30*
G04 #@! TO.N,Net-(C8-Pad1)*
X125306400Y-69450800D03*
G04 #@! TO.P,TxRxMCU1,29*
G04 #@! TO.N,/VDDR*
X124806400Y-69450800D03*
G04 #@! TO.P,TxRxMCU1,28*
G04 #@! TO.N,/VDDS*
X124306400Y-69450800D03*
G04 #@! TO.P,TxRxMCU1,27*
G04 #@! TO.N,Net-(J2-Pad4)*
X123806400Y-69450800D03*
G04 #@! TO.P,TxRxMCU1,26*
G04 #@! TO.N,Net-(J2-Pad5)*
X123306400Y-69450800D03*
G04 #@! TO.P,TxRxMCU1,25*
G04 #@! TO.N,Net-(TxRxMCU1-Pad25)*
X122806400Y-69450800D03*
G04 #@! TO.P,TxRxMCU1,16*
G04 #@! TO.N,Net-(TxRxMCU1-Pad16)*
X122806400Y-64650800D03*
G04 #@! TO.P,TxRxMCU1,15*
G04 #@! TO.N,Net-(TxRxMCU1-Pad15)*
X123306400Y-64650800D03*
G04 #@! TO.P,TxRxMCU1,14*
G04 #@! TO.N,/JTAG_TCKS*
X123806400Y-64650800D03*
G04 #@! TO.P,TxRxMCU1,13*
G04 #@! TO.N,/JTAG_TMSC*
X124306400Y-64650800D03*
G04 #@! TO.P,TxRxMCU1,12*
G04 #@! TO.N,Net-(C5-Pad1)*
X124806400Y-64650800D03*
G04 #@! TO.P,TxRxMCU1,11*
G04 #@! TO.N,/VDDS*
X125306400Y-64650800D03*
G04 #@! TO.P,TxRxMCU1,10*
G04 #@! TO.N,Net-(TxRxMCU1-Pad10)*
X125806400Y-64650800D03*
G04 #@! TO.P,TxRxMCU1,9*
G04 #@! TO.N,Net-(TxRxMCU1-Pad9)*
X126306400Y-64650800D03*
G04 #@! TD*
D28*
G04 #@! TO.P,Y1,1*
G04 #@! TO.N,Net-(C7-Pad1)*
X126786400Y-76130800D03*
G04 #@! TO.P,Y1,2*
G04 #@! TO.N,Net-(C8-Pad1)*
X124286400Y-76130800D03*
G04 #@! TD*
D29*
G04 #@! TO.P,Y2,1*
G04 #@! TO.N,Net-(C15-Pad1)*
X133048400Y-61303800D03*
G04 #@! TO.P,Y2,2*
G04 #@! TO.N,GND*
X130848400Y-61303800D03*
G04 #@! TO.P,Y2,3*
G04 #@! TO.N,Net-(C16-Pad1)*
X130848400Y-62903800D03*
G04 #@! TO.P,Y2,4*
G04 #@! TO.N,GND*
X133048400Y-62903800D03*
G04 #@! TD*
D19*
G04 #@! TO.P,J2,5*
G04 #@! TO.N,Net-(J2-Pad5)*
X105711400Y-60235800D03*
G04 #@! TO.P,J2,4*
G04 #@! TO.N,Net-(J2-Pad4)*
X108251400Y-60235800D03*
G04 #@! TO.P,J2,3*
G04 #@! TO.N,/nRESET*
X110791400Y-60235800D03*
G04 #@! TO.P,J2,2*
G04 #@! TO.N,/JTAG_TCKS*
X113331400Y-60235800D03*
G04 #@! TO.P,J2,1*
G04 #@! TO.N,/JTAG_TMSC*
X115871400Y-60235800D03*
G04 #@! TD*
D30*
G04 #@! TO.N,GND*
X141732000Y-70104000D03*
X141732000Y-70866000D03*
X141732000Y-71628000D03*
X141732000Y-72390000D03*
X141732000Y-73152000D03*
X141732000Y-73914000D03*
X141732000Y-74676000D03*
X141732000Y-75438000D03*
X141732000Y-76200000D03*
X141732000Y-76962000D03*
X141732000Y-77724000D03*
X140970000Y-70104000D03*
X140208000Y-70104000D03*
X139446000Y-70104000D03*
X141732000Y-78486000D03*
X141732000Y-67056000D03*
X140970000Y-67056000D03*
X140208000Y-67056000D03*
X139446000Y-67056000D03*
X141732000Y-66294000D03*
X141732000Y-65532000D03*
X141732000Y-64770000D03*
X141732000Y-64008000D03*
X141732000Y-63246000D03*
X138684000Y-67056000D03*
X141732000Y-79248000D03*
X141732000Y-80010000D03*
X141732000Y-81534000D03*
X141732000Y-80772000D03*
X141732000Y-82296000D03*
X141732000Y-83820000D03*
X141732000Y-83058000D03*
X141732000Y-84582000D03*
X141732000Y-86106000D03*
X141732000Y-85344000D03*
X141732000Y-86868000D03*
X141732000Y-87630000D03*
X137922000Y-67056000D03*
X137160000Y-67056000D03*
X136398000Y-67056000D03*
X135636000Y-67056000D03*
X134874000Y-67056000D03*
X141732000Y-62484000D03*
X141732000Y-61722000D03*
X141732000Y-60960000D03*
X141732000Y-60198000D03*
X141732000Y-59436000D03*
X141732000Y-58674000D03*
X141732000Y-57150000D03*
X141732000Y-57912000D03*
X141732000Y-56388000D03*
X141732000Y-55626000D03*
X141732000Y-54864000D03*
X141732000Y-54102000D03*
X141732000Y-53340000D03*
X141732000Y-52578000D03*
X141732000Y-51816000D03*
X111531400Y-70495800D03*
X124890400Y-54226800D03*
X124236400Y-80590800D03*
X143687800Y-75641200D03*
G04 #@! TO.N,/VDDS*
X120201400Y-65685800D03*
X125311400Y-63635800D03*
X123401400Y-72315800D03*
G04 #@! TO.N,/nRESET*
X118471400Y-66855800D03*
G04 #@! TO.N,/VDDR*
X126521400Y-71415800D03*
X113366400Y-64030800D03*
X124601400Y-71415800D03*
G04 #@! TO.N,Net-(J2-Pad5)*
X118071400Y-71505800D03*
G04 #@! TO.N,Net-(J2-Pad4)*
X118771400Y-72215800D03*
G04 #@! TD*
D31*
G04 #@! TO.N,GND*
X108851400Y-67982800D02*
X108916400Y-68047800D01*
X106201400Y-67982800D02*
X108851400Y-67982800D01*
X111545400Y-68047800D02*
X111572400Y-68020800D01*
X108916400Y-68047800D02*
X111545400Y-68047800D01*
X112919400Y-70510800D02*
X112919400Y-73290800D01*
X112919400Y-76050800D02*
X112909400Y-76060800D01*
X112919400Y-73290800D02*
X112919400Y-76050800D01*
X112909400Y-78741800D02*
X112938400Y-78770800D01*
X112909400Y-76060800D02*
X112909400Y-78741800D01*
X124236400Y-79226900D02*
X126786400Y-79226900D01*
X112919400Y-70510800D02*
X112919400Y-69757800D01*
X113914400Y-68762800D02*
X113914400Y-67745800D01*
X112919400Y-69757800D02*
X113914400Y-68762800D01*
X133048400Y-62903800D02*
X133933400Y-62903800D01*
X134149300Y-62687900D02*
X134912400Y-62687900D01*
X133933400Y-62903800D02*
X134149300Y-62687900D01*
X130848400Y-61303800D02*
X130063400Y-61303800D01*
X129771500Y-61595700D02*
X129070400Y-61595700D01*
X130063400Y-61303800D02*
X129771500Y-61595700D01*
X124890400Y-55650800D02*
X124890400Y-54226800D01*
X124890400Y-54226800D02*
X124890400Y-54226800D01*
X132691282Y-62903800D02*
X133048400Y-62903800D01*
X131091282Y-61303800D02*
X132691282Y-62903800D01*
X130848400Y-61303800D02*
X131091282Y-61303800D01*
X111546400Y-70510800D02*
X111531400Y-70495800D01*
X112919400Y-70510800D02*
X111546400Y-70510800D01*
X111531400Y-68061800D02*
X111572400Y-68020800D01*
X111531400Y-70495800D02*
X111531400Y-68061800D01*
X124236400Y-79226900D02*
X124236400Y-80590800D01*
X124236400Y-80590800D02*
X124236400Y-80590800D01*
D32*
X130914140Y-71877180D02*
X130909060Y-71882260D01*
X134292080Y-71877180D02*
X130914140Y-71877180D01*
D31*
G04 #@! TO.N,/VDDS*
X115873400Y-70510800D02*
X115873400Y-73290800D01*
X115873400Y-76050800D02*
X115863400Y-76060800D01*
X115873400Y-73290800D02*
X115873400Y-76050800D01*
X115794400Y-76129800D02*
X115863400Y-76060800D01*
X115794400Y-78770800D02*
X115794400Y-76129800D01*
X115740700Y-78824500D02*
X115794400Y-78770800D01*
X115740700Y-81220800D02*
X115740700Y-78824500D01*
X117505400Y-70510800D02*
X117541400Y-70474800D01*
X115873400Y-70510800D02*
X117505400Y-70510800D01*
X125306400Y-63640800D02*
X125311400Y-63635800D01*
X125306400Y-64650800D02*
X125306400Y-63640800D01*
X124306400Y-70672430D02*
X123401400Y-71577430D01*
X124306400Y-69450800D02*
X124306400Y-70672430D01*
X123401400Y-71577430D02*
X123401400Y-72315800D01*
X123401400Y-72315800D02*
X123401400Y-72315800D01*
X120316400Y-65800800D02*
X120201400Y-65685800D01*
X122156400Y-65800800D02*
X120316400Y-65800800D01*
X116850518Y-65685800D02*
X120201400Y-65685800D01*
X115873400Y-66662918D02*
X116850518Y-65685800D01*
X115873400Y-70510800D02*
X115873400Y-66662918D01*
G04 #@! TO.N,/nRESET*
X116868400Y-68836600D02*
X116868400Y-67745800D01*
X118103400Y-70071600D02*
X116868400Y-68836600D01*
X118103400Y-70474800D02*
X118103400Y-70071600D01*
X116868400Y-67745800D02*
X118671400Y-67745800D01*
X120116400Y-66300800D02*
X122156400Y-66300800D01*
X119006400Y-67390800D02*
X119006400Y-67410800D01*
X118471400Y-66855800D02*
X119006400Y-67390800D01*
X119006400Y-67410800D02*
X120116400Y-66300800D01*
X118671400Y-67745800D02*
X119006400Y-67410800D01*
G04 #@! TO.N,Net-(C5-Pad1)*
X124806400Y-58694800D02*
X124890400Y-58610800D01*
X124806400Y-64650800D02*
X124806400Y-58694800D01*
G04 #@! TO.N,Net-(C7-Pad1)*
X126786400Y-76130800D02*
X126786400Y-78134700D01*
X126786400Y-76130800D02*
X126786400Y-74450800D01*
X125806400Y-73470800D02*
X125806400Y-69450800D01*
X126786400Y-74450800D02*
X125806400Y-73470800D01*
G04 #@! TO.N,Net-(C8-Pad1)*
X124286400Y-78084700D02*
X124236400Y-78134700D01*
X124286400Y-76130800D02*
X124286400Y-78084700D01*
X124286400Y-76130800D02*
X124286400Y-74560800D01*
X125306400Y-73540800D02*
X125306400Y-69450800D01*
X124286400Y-74560800D02*
X125306400Y-73540800D01*
G04 #@! TO.N,/VDDR*
X108851400Y-65028800D02*
X108916400Y-65093800D01*
X106201400Y-65028800D02*
X108851400Y-65028800D01*
X111501400Y-65093800D02*
X111572400Y-65164800D01*
X108916400Y-65093800D02*
X111501400Y-65093800D01*
X113260400Y-65164800D02*
X113366400Y-65270800D01*
X111572400Y-65164800D02*
X113260400Y-65164800D01*
X113366400Y-65270800D02*
X113366400Y-64030800D01*
X113366400Y-64030800D02*
X113366400Y-64030800D01*
X124806400Y-71210800D02*
X124601400Y-71415800D01*
X124806400Y-69450800D02*
X124806400Y-71210800D01*
X126306400Y-71200800D02*
X126521400Y-71415800D01*
X126306400Y-69450800D02*
X126306400Y-71200800D01*
D33*
G04 #@! TO.N,Net-(C10-Pad1)*
X130916680Y-68874640D02*
X130909060Y-68882260D01*
X133447860Y-68874640D02*
X130916680Y-68874640D01*
D32*
X130827600Y-68800800D02*
X130909060Y-68882260D01*
X126956400Y-68800800D02*
X130827600Y-68800800D01*
X133447860Y-68874640D02*
X133447860Y-68162240D01*
X132843200Y-67557580D02*
X132843200Y-66598800D01*
X133447860Y-68162240D02*
X132843200Y-67557580D01*
D33*
G04 #@! TO.N,Net-(C12-Pad1)*
X137637160Y-68875000D02*
X137634980Y-68877180D01*
X139928900Y-68875000D02*
X137637160Y-68875000D01*
X135078400Y-68877180D02*
X135075860Y-68874640D01*
X137634980Y-68877180D02*
X135078400Y-68877180D01*
G04 #@! TO.N,Net-(AE1-Pad1)*
X141021100Y-68875000D02*
X142966800Y-68875000D01*
D31*
G04 #@! TO.N,/VDD_EB*
X109656400Y-81220800D02*
X109651400Y-81215800D01*
X114242100Y-81220800D02*
X109656400Y-81220800D01*
G04 #@! TO.N,Net-(J2-Pad5)*
X123306400Y-69918682D02*
X123306400Y-69450800D01*
X121719282Y-71505800D02*
X123306400Y-69918682D01*
X121719282Y-71505800D02*
X118071400Y-71505800D01*
X118071400Y-71505800D02*
X118071400Y-71505800D01*
G04 #@! TO.N,Net-(J2-Pad4)*
X123806400Y-70330800D02*
X123806400Y-69450800D01*
X121921400Y-72215800D02*
X123806400Y-70330800D01*
X121921400Y-72215800D02*
X118771400Y-72215800D01*
X118771400Y-72215800D02*
X118771400Y-72215800D01*
G04 #@! TO.N,/JTAG_TCKS*
X123806400Y-64182918D02*
X123806400Y-64650800D01*
X121160883Y-61537401D02*
X123806400Y-64182918D01*
X114633001Y-61537401D02*
X121160883Y-61537401D01*
X113331400Y-60235800D02*
X114633001Y-61537401D01*
G04 #@! TO.N,/JTAG_TMSC*
X124306400Y-64040800D02*
X124306400Y-64650800D01*
X120501400Y-60235800D02*
X124306400Y-64040800D01*
X115871400Y-60235800D02*
X120501400Y-60235800D01*
G04 #@! TO.N,/DCDC_SW*
X115396400Y-65300800D02*
X115366400Y-65270800D01*
X120538169Y-64984199D02*
X116393001Y-64984199D01*
X120854770Y-65300800D02*
X120538169Y-64984199D01*
X122156400Y-65300800D02*
X120854770Y-65300800D01*
X116106400Y-65270800D02*
X115366400Y-65270800D01*
X116393001Y-64984199D02*
X116106400Y-65270800D01*
D32*
G04 #@! TO.N,Net-(L3-Pad1)*
X131215200Y-66598800D02*
X129715260Y-66598800D01*
X128013260Y-68300800D02*
X126956400Y-68300800D01*
X129715260Y-66598800D02*
X128013260Y-68300800D01*
D31*
G04 #@! TO.N,Net-(C15-Pad1)*
X126956400Y-66800800D02*
X127459600Y-66800800D01*
X133048400Y-61303800D02*
X133899400Y-61303800D01*
X134191300Y-61595700D02*
X134912400Y-61595700D01*
X133899400Y-61303800D02*
X134191300Y-61595700D01*
X128465999Y-61005499D02*
X130035498Y-59436000D01*
X127509200Y-66800800D02*
X128465999Y-65844001D01*
X128465999Y-65844001D02*
X128465999Y-61005499D01*
D32*
X127459600Y-66800800D02*
X127509200Y-66800800D01*
D31*
X130035498Y-59436000D02*
X131826000Y-59436000D01*
X133048400Y-60658400D02*
X133048400Y-61303800D01*
X131826000Y-59436000D02*
X133048400Y-60658400D01*
G04 #@! TO.N,Net-(C16-Pad1)*
X126956400Y-67300800D02*
X127836400Y-67300800D01*
X129070400Y-66066800D02*
X129070400Y-62687900D01*
X127836400Y-67300800D02*
X129070400Y-66066800D01*
X129070400Y-62687900D02*
X129593500Y-62687900D01*
X129809400Y-62903800D02*
X130848400Y-62903800D01*
X129593500Y-62687900D02*
X129809400Y-62903800D01*
G04 #@! TD*
D34*
G04 #@! TO.N,GND*
X140566418Y-69780212D02*
X140690900Y-69792472D01*
X141351300Y-69792472D01*
X141475782Y-69780212D01*
X141508293Y-69770350D01*
X142367000Y-69770350D01*
X142367000Y-88240000D01*
X133934200Y-88240000D01*
X133934200Y-72452180D01*
X136096908Y-72452180D01*
X136109168Y-72576662D01*
X136145478Y-72696360D01*
X136204443Y-72806674D01*
X136283795Y-72903365D01*
X136380486Y-72982717D01*
X136490800Y-73041682D01*
X136610498Y-73077992D01*
X136734980Y-73090252D01*
X137349230Y-73087180D01*
X137507980Y-72928430D01*
X137507980Y-72004180D01*
X137761980Y-72004180D01*
X137761980Y-72928430D01*
X137920730Y-73087180D01*
X138534980Y-73090252D01*
X138659462Y-73077992D01*
X138779160Y-73041682D01*
X138889474Y-72982717D01*
X138986165Y-72903365D01*
X139065517Y-72806674D01*
X139124482Y-72696360D01*
X139160792Y-72576662D01*
X139173052Y-72452180D01*
X139169980Y-72162930D01*
X139011230Y-72004180D01*
X137761980Y-72004180D01*
X137507980Y-72004180D01*
X136258730Y-72004180D01*
X136099980Y-72162930D01*
X136096908Y-72452180D01*
X133934200Y-72452180D01*
X133934200Y-71302180D01*
X136096908Y-71302180D01*
X136099980Y-71591430D01*
X136258730Y-71750180D01*
X137507980Y-71750180D01*
X137507980Y-70825930D01*
X137761980Y-70825930D01*
X137761980Y-71750180D01*
X139011230Y-71750180D01*
X139169980Y-71591430D01*
X139173052Y-71302180D01*
X139160792Y-71177698D01*
X139124482Y-71058000D01*
X139065517Y-70947686D01*
X138986165Y-70850995D01*
X138889474Y-70771643D01*
X138779160Y-70712678D01*
X138659462Y-70676368D01*
X138534980Y-70664108D01*
X137920730Y-70667180D01*
X137761980Y-70825930D01*
X137507980Y-70825930D01*
X137349230Y-70667180D01*
X136734980Y-70664108D01*
X136610498Y-70676368D01*
X136490800Y-70712678D01*
X136380486Y-70771643D01*
X136283795Y-70850995D01*
X136204443Y-70947686D01*
X136145478Y-71058000D01*
X136109168Y-71177698D01*
X136096908Y-71302180D01*
X133934200Y-71302180D01*
X133934200Y-70063641D01*
X134017342Y-70055452D01*
X134137040Y-70019142D01*
X134247354Y-69960177D01*
X134261860Y-69948272D01*
X134276366Y-69960177D01*
X134386680Y-70019142D01*
X134506378Y-70055452D01*
X134630860Y-70067712D01*
X135520860Y-70067712D01*
X135645342Y-70055452D01*
X135765040Y-70019142D01*
X135875354Y-69960177D01*
X135972045Y-69880825D01*
X136051397Y-69784134D01*
X136057600Y-69772530D01*
X136186192Y-69772530D01*
X136204443Y-69806674D01*
X136283795Y-69903365D01*
X136380486Y-69982717D01*
X136490800Y-70041682D01*
X136610498Y-70077992D01*
X136734980Y-70090252D01*
X138534980Y-70090252D01*
X138659462Y-70077992D01*
X138779160Y-70041682D01*
X138889474Y-69982717D01*
X138986165Y-69903365D01*
X139065517Y-69806674D01*
X139084933Y-69770350D01*
X139441707Y-69770350D01*
X139474218Y-69780212D01*
X139598700Y-69792472D01*
X140259100Y-69792472D01*
X140383582Y-69780212D01*
X140475000Y-69752481D01*
X140566418Y-69780212D01*
G04 #@! TA.AperFunction,Conductor*
D35*
G36*
X140566418Y-69780212D02*
G01*
X140690900Y-69792472D01*
X141351300Y-69792472D01*
X141475782Y-69780212D01*
X141508293Y-69770350D01*
X142367000Y-69770350D01*
X142367000Y-88240000D01*
X133934200Y-88240000D01*
X133934200Y-72452180D01*
X136096908Y-72452180D01*
X136109168Y-72576662D01*
X136145478Y-72696360D01*
X136204443Y-72806674D01*
X136283795Y-72903365D01*
X136380486Y-72982717D01*
X136490800Y-73041682D01*
X136610498Y-73077992D01*
X136734980Y-73090252D01*
X137349230Y-73087180D01*
X137507980Y-72928430D01*
X137507980Y-72004180D01*
X137761980Y-72004180D01*
X137761980Y-72928430D01*
X137920730Y-73087180D01*
X138534980Y-73090252D01*
X138659462Y-73077992D01*
X138779160Y-73041682D01*
X138889474Y-72982717D01*
X138986165Y-72903365D01*
X139065517Y-72806674D01*
X139124482Y-72696360D01*
X139160792Y-72576662D01*
X139173052Y-72452180D01*
X139169980Y-72162930D01*
X139011230Y-72004180D01*
X137761980Y-72004180D01*
X137507980Y-72004180D01*
X136258730Y-72004180D01*
X136099980Y-72162930D01*
X136096908Y-72452180D01*
X133934200Y-72452180D01*
X133934200Y-71302180D01*
X136096908Y-71302180D01*
X136099980Y-71591430D01*
X136258730Y-71750180D01*
X137507980Y-71750180D01*
X137507980Y-70825930D01*
X137761980Y-70825930D01*
X137761980Y-71750180D01*
X139011230Y-71750180D01*
X139169980Y-71591430D01*
X139173052Y-71302180D01*
X139160792Y-71177698D01*
X139124482Y-71058000D01*
X139065517Y-70947686D01*
X138986165Y-70850995D01*
X138889474Y-70771643D01*
X138779160Y-70712678D01*
X138659462Y-70676368D01*
X138534980Y-70664108D01*
X137920730Y-70667180D01*
X137761980Y-70825930D01*
X137507980Y-70825930D01*
X137349230Y-70667180D01*
X136734980Y-70664108D01*
X136610498Y-70676368D01*
X136490800Y-70712678D01*
X136380486Y-70771643D01*
X136283795Y-70850995D01*
X136204443Y-70947686D01*
X136145478Y-71058000D01*
X136109168Y-71177698D01*
X136096908Y-71302180D01*
X133934200Y-71302180D01*
X133934200Y-70063641D01*
X134017342Y-70055452D01*
X134137040Y-70019142D01*
X134247354Y-69960177D01*
X134261860Y-69948272D01*
X134276366Y-69960177D01*
X134386680Y-70019142D01*
X134506378Y-70055452D01*
X134630860Y-70067712D01*
X135520860Y-70067712D01*
X135645342Y-70055452D01*
X135765040Y-70019142D01*
X135875354Y-69960177D01*
X135972045Y-69880825D01*
X136051397Y-69784134D01*
X136057600Y-69772530D01*
X136186192Y-69772530D01*
X136204443Y-69806674D01*
X136283795Y-69903365D01*
X136380486Y-69982717D01*
X136490800Y-70041682D01*
X136610498Y-70077992D01*
X136734980Y-70090252D01*
X138534980Y-70090252D01*
X138659462Y-70077992D01*
X138779160Y-70041682D01*
X138889474Y-69982717D01*
X138986165Y-69903365D01*
X139065517Y-69806674D01*
X139084933Y-69770350D01*
X139441707Y-69770350D01*
X139474218Y-69780212D01*
X139598700Y-69792472D01*
X140259100Y-69792472D01*
X140383582Y-69780212D01*
X140475000Y-69752481D01*
X140566418Y-69780212D01*
G37*
G04 #@! TD.AperFunction*
D34*
X142367000Y-67979650D02*
X141508293Y-67979650D01*
X141475782Y-67969788D01*
X141351300Y-67957528D01*
X140690900Y-67957528D01*
X140566418Y-67969788D01*
X140475000Y-67997519D01*
X140383582Y-67969788D01*
X140259100Y-67957528D01*
X139598700Y-67957528D01*
X139474218Y-67969788D01*
X139441707Y-67979650D01*
X139082602Y-67979650D01*
X139065517Y-67947686D01*
X138986165Y-67850995D01*
X138889474Y-67771643D01*
X138779160Y-67712678D01*
X138659462Y-67676368D01*
X138534980Y-67664108D01*
X136734980Y-67664108D01*
X136610498Y-67676368D01*
X136490800Y-67712678D01*
X136380486Y-67771643D01*
X136283795Y-67850995D01*
X136204443Y-67947686D01*
X136186192Y-67981830D01*
X136060315Y-67981830D01*
X136051397Y-67965146D01*
X135972045Y-67868455D01*
X135875354Y-67789103D01*
X135765040Y-67730138D01*
X135645342Y-67693828D01*
X135520860Y-67681568D01*
X134630860Y-67681568D01*
X134506378Y-67693828D01*
X134386680Y-67730138D01*
X134276366Y-67789103D01*
X134261860Y-67801008D01*
X134247354Y-67789103D01*
X134137040Y-67730138D01*
X134056315Y-67705650D01*
X133987861Y-67622239D01*
X133958862Y-67598440D01*
X133934200Y-67573778D01*
X133934200Y-64111011D01*
X133992580Y-64093302D01*
X134102894Y-64034337D01*
X134199585Y-63954985D01*
X134278937Y-63858294D01*
X134337902Y-63747980D01*
X134374212Y-63628282D01*
X134376851Y-63601486D01*
X134385934Y-63606398D01*
X134505452Y-63643294D01*
X134626650Y-63653100D01*
X134785400Y-63494350D01*
X134785400Y-62814900D01*
X135039400Y-62814900D01*
X135039400Y-63494350D01*
X135198150Y-63653100D01*
X135319348Y-63643294D01*
X135438866Y-63606398D01*
X135548890Y-63546893D01*
X135645191Y-63467068D01*
X135724069Y-63369989D01*
X135782492Y-63259387D01*
X135818214Y-63139513D01*
X135829864Y-63014972D01*
X135826800Y-62973650D01*
X135668050Y-62814900D01*
X135039400Y-62814900D01*
X134785400Y-62814900D01*
X134765400Y-62814900D01*
X134765400Y-62563972D01*
X135191800Y-62563972D01*
X135222992Y-62560900D01*
X135668050Y-62560900D01*
X135826800Y-62402150D01*
X135829864Y-62360828D01*
X135818214Y-62236287D01*
X135789970Y-62141506D01*
X135817612Y-62050382D01*
X135829872Y-61925900D01*
X135829872Y-61265500D01*
X135817612Y-61141018D01*
X135781302Y-61021320D01*
X135722337Y-60911006D01*
X135642985Y-60814315D01*
X135546294Y-60734963D01*
X135435980Y-60675998D01*
X135316282Y-60639688D01*
X135191800Y-60627428D01*
X134633000Y-60627428D01*
X134508518Y-60639688D01*
X134388820Y-60675998D01*
X134383988Y-60678581D01*
X134374212Y-60579318D01*
X134337902Y-60459620D01*
X134278937Y-60349306D01*
X134199585Y-60252615D01*
X134102894Y-60173263D01*
X133992580Y-60114298D01*
X133934200Y-60096589D01*
X133934200Y-51460000D01*
X142367000Y-51460000D01*
X142367000Y-67979650D01*
G04 #@! TA.AperFunction,Conductor*
D35*
G36*
X142367000Y-67979650D02*
G01*
X141508293Y-67979650D01*
X141475782Y-67969788D01*
X141351300Y-67957528D01*
X140690900Y-67957528D01*
X140566418Y-67969788D01*
X140475000Y-67997519D01*
X140383582Y-67969788D01*
X140259100Y-67957528D01*
X139598700Y-67957528D01*
X139474218Y-67969788D01*
X139441707Y-67979650D01*
X139082602Y-67979650D01*
X139065517Y-67947686D01*
X138986165Y-67850995D01*
X138889474Y-67771643D01*
X138779160Y-67712678D01*
X138659462Y-67676368D01*
X138534980Y-67664108D01*
X136734980Y-67664108D01*
X136610498Y-67676368D01*
X136490800Y-67712678D01*
X136380486Y-67771643D01*
X136283795Y-67850995D01*
X136204443Y-67947686D01*
X136186192Y-67981830D01*
X136060315Y-67981830D01*
X136051397Y-67965146D01*
X135972045Y-67868455D01*
X135875354Y-67789103D01*
X135765040Y-67730138D01*
X135645342Y-67693828D01*
X135520860Y-67681568D01*
X134630860Y-67681568D01*
X134506378Y-67693828D01*
X134386680Y-67730138D01*
X134276366Y-67789103D01*
X134261860Y-67801008D01*
X134247354Y-67789103D01*
X134137040Y-67730138D01*
X134056315Y-67705650D01*
X133987861Y-67622239D01*
X133958862Y-67598440D01*
X133934200Y-67573778D01*
X133934200Y-64111011D01*
X133992580Y-64093302D01*
X134102894Y-64034337D01*
X134199585Y-63954985D01*
X134278937Y-63858294D01*
X134337902Y-63747980D01*
X134374212Y-63628282D01*
X134376851Y-63601486D01*
X134385934Y-63606398D01*
X134505452Y-63643294D01*
X134626650Y-63653100D01*
X134785400Y-63494350D01*
X134785400Y-62814900D01*
X135039400Y-62814900D01*
X135039400Y-63494350D01*
X135198150Y-63653100D01*
X135319348Y-63643294D01*
X135438866Y-63606398D01*
X135548890Y-63546893D01*
X135645191Y-63467068D01*
X135724069Y-63369989D01*
X135782492Y-63259387D01*
X135818214Y-63139513D01*
X135829864Y-63014972D01*
X135826800Y-62973650D01*
X135668050Y-62814900D01*
X135039400Y-62814900D01*
X134785400Y-62814900D01*
X134765400Y-62814900D01*
X134765400Y-62563972D01*
X135191800Y-62563972D01*
X135222992Y-62560900D01*
X135668050Y-62560900D01*
X135826800Y-62402150D01*
X135829864Y-62360828D01*
X135818214Y-62236287D01*
X135789970Y-62141506D01*
X135817612Y-62050382D01*
X135829872Y-61925900D01*
X135829872Y-61265500D01*
X135817612Y-61141018D01*
X135781302Y-61021320D01*
X135722337Y-60911006D01*
X135642985Y-60814315D01*
X135546294Y-60734963D01*
X135435980Y-60675998D01*
X135316282Y-60639688D01*
X135191800Y-60627428D01*
X134633000Y-60627428D01*
X134508518Y-60639688D01*
X134388820Y-60675998D01*
X134383988Y-60678581D01*
X134374212Y-60579318D01*
X134337902Y-60459620D01*
X134278937Y-60349306D01*
X134199585Y-60252615D01*
X134102894Y-60173263D01*
X133992580Y-60114298D01*
X133934200Y-60096589D01*
X133934200Y-51460000D01*
X142367000Y-51460000D01*
X142367000Y-67979650D01*
G37*
G04 #@! TD.AperFunction*
G04 #@! TD*
M02*
