%TF.GenerationSoftware,KiCad,Pcbnew,(5.1.7)-1*%
%TF.CreationDate,2021-02-06T18:02:14-06:00*%
%TF.ProjectId,SLEDBoard,534c4544-426f-4617-9264-2e6b69636164,v01*%
%TF.SameCoordinates,Original*%
%TF.FileFunction,Soldermask,Bot*%
%TF.FilePolarity,Negative*%
%FSLAX46Y46*%
G04 Gerber Fmt 4.6, Leading zero omitted, Abs format (unit mm)*
G04 Created by KiCad (PCBNEW (5.1.7)-1) date 2021-02-06 18:02:14*
%MOMM*%
%LPD*%
G01*
G04 APERTURE LIST*
%ADD10O,1.600000X1.600000*%
%ADD11C,1.600000*%
%ADD12O,1.800000X1.800000*%
%ADD13R,1.800000X1.800000*%
%ADD14R,1.600000X1.600000*%
%ADD15C,2.000000*%
G04 APERTURE END LIST*
D10*
%TO.C,R18*%
X48025000Y-77130000D03*
D11*
X48025000Y-72050000D03*
%TD*%
D10*
%TO.C,R16*%
X47200000Y-92705000D03*
D11*
X47200000Y-87625000D03*
%TD*%
D10*
%TO.C,R14*%
X77100000Y-76980000D03*
D11*
X77100000Y-71900000D03*
%TD*%
D10*
%TO.C,R12*%
X77100000Y-92780000D03*
D11*
X77100000Y-87700000D03*
%TD*%
D10*
%TO.C,R10*%
X103600000Y-168405000D03*
D11*
X103600000Y-163325000D03*
%TD*%
D10*
%TO.C,R8*%
X103625000Y-154855000D03*
D11*
X103625000Y-149775000D03*
%TD*%
D10*
%TO.C,R6*%
X72600000Y-168180000D03*
D11*
X72600000Y-163100000D03*
%TD*%
D10*
%TO.C,R4*%
X72759400Y-154934000D03*
D11*
X72759400Y-149854000D03*
%TD*%
D12*
%TO.C,D8*%
X51675000Y-79635000D03*
D13*
X51675000Y-69475000D03*
%TD*%
D12*
%TO.C,D7*%
X51400000Y-95135000D03*
D13*
X51400000Y-84975000D03*
%TD*%
D12*
%TO.C,D6*%
X80850000Y-79710000D03*
D13*
X80850000Y-69550000D03*
%TD*%
D12*
%TO.C,D5*%
X81000000Y-94985000D03*
D13*
X81000000Y-84825000D03*
%TD*%
D12*
%TO.C,D4*%
X107375000Y-171085000D03*
D13*
X107375000Y-160925000D03*
%TD*%
D12*
%TO.C,D3*%
X107400000Y-157235000D03*
D13*
X107400000Y-147075000D03*
%TD*%
D12*
%TO.C,D2*%
X76500000Y-170960000D03*
D13*
X76500000Y-160800000D03*
%TD*%
%TO.C,D1*%
X76500000Y-147100000D03*
D12*
X76500000Y-157260000D03*
%TD*%
D11*
%TO.C,U10*%
X71655000Y-85100000D03*
X69115000Y-85100000D03*
X66575000Y-85100000D03*
X64035000Y-85100000D03*
X61495000Y-85100000D03*
X58955000Y-85100000D03*
X56415000Y-85100000D03*
%TD*%
%TO.C,U9*%
X71655000Y-91450000D03*
X69115000Y-91450000D03*
X66575000Y-91450000D03*
X64035000Y-91450000D03*
X61495000Y-91450000D03*
X58955000Y-91450000D03*
X56415000Y-91450000D03*
%TD*%
%TO.C,U8*%
X100865000Y-85100000D03*
X98325000Y-85100000D03*
X95785000Y-85100000D03*
X93245000Y-85100000D03*
X90705000Y-85100000D03*
X88165000Y-85100000D03*
X85625000Y-85100000D03*
%TD*%
%TO.C,U7*%
X100865000Y-91450000D03*
X98325000Y-91450000D03*
X95785000Y-91450000D03*
X93245000Y-91450000D03*
X90705000Y-91450000D03*
X88165000Y-91450000D03*
X85625000Y-91450000D03*
%TD*%
%TO.C,U6*%
X83800000Y-154025000D03*
X86340000Y-154025000D03*
X88880000Y-154025000D03*
X91420000Y-154025000D03*
X93960000Y-154025000D03*
X96500000Y-154025000D03*
X99040000Y-154025000D03*
%TD*%
%TO.C,U5*%
X83800000Y-146405000D03*
X86340000Y-146405000D03*
X88880000Y-146405000D03*
X91420000Y-146405000D03*
X93960000Y-146405000D03*
X96500000Y-146405000D03*
X99040000Y-146405000D03*
%TD*%
%TO.C,U4*%
X52960000Y-154025000D03*
X55500000Y-154025000D03*
X58040000Y-154025000D03*
X60580000Y-154025000D03*
X63120000Y-154025000D03*
X65660000Y-154025000D03*
X68200000Y-154025000D03*
%TD*%
%TO.C,U3*%
X52985000Y-146405000D03*
X55525000Y-146405000D03*
X58065000Y-146405000D03*
X60605000Y-146405000D03*
X63145000Y-146405000D03*
X65685000Y-146405000D03*
X68225000Y-146405000D03*
%TD*%
%TO.C,DECODER1*%
X43537200Y-109357000D03*
X43537200Y-101737000D03*
X61317200Y-109357000D03*
X58777200Y-109357000D03*
X56237200Y-109357000D03*
X53697200Y-109357000D03*
X51157200Y-109357000D03*
X48617200Y-109357000D03*
X46077200Y-109357000D03*
X46077200Y-101737000D03*
X48617200Y-101737000D03*
X51157200Y-101737000D03*
X53697200Y-101737000D03*
X56237200Y-101737000D03*
X58777200Y-101737000D03*
D14*
X61317200Y-101737000D03*
%TD*%
D10*
%TO.C,R1*%
X44550000Y-141245000D03*
D11*
X44550000Y-146325000D03*
%TD*%
D15*
%TO.C,VDD*%
X34850000Y-146300000D03*
X34850000Y-148840000D03*
%TD*%
%TO.C,U2*%
X34825000Y-97800000D03*
X34825000Y-100340000D03*
X34825000Y-102880000D03*
X34825000Y-105420000D03*
X34825000Y-107960000D03*
X34825000Y-110500000D03*
X34825000Y-113040000D03*
X34825000Y-115580000D03*
X34825000Y-118120000D03*
X34825000Y-120660000D03*
X34825000Y-123200000D03*
X34825000Y-125740000D03*
X34825000Y-128280000D03*
X34825000Y-130820000D03*
X34825000Y-133360000D03*
%TD*%
M02*
