%TF.GenerationSoftware,KiCad,Pcbnew,(5.1.7)-1*%
%TF.CreationDate,2021-02-06T18:02:14-06:00*%
%TF.ProjectId,SLEDBoard,534c4544-426f-4617-9264-2e6b69636164,v01*%
%TF.SameCoordinates,Original*%
%TF.FileFunction,Copper,L2,Bot*%
%TF.FilePolarity,Positive*%
%FSLAX46Y46*%
G04 Gerber Fmt 4.6, Leading zero omitted, Abs format (unit mm)*
G04 Created by KiCad (PCBNEW (5.1.7)-1) date 2021-02-06 18:02:14*
%MOMM*%
%LPD*%
G01*
G04 APERTURE LIST*
%TA.AperFunction,ComponentPad*%
%ADD10O,1.600000X1.600000*%
%TD*%
%TA.AperFunction,ComponentPad*%
%ADD11C,1.600000*%
%TD*%
%TA.AperFunction,ComponentPad*%
%ADD12O,1.800000X1.800000*%
%TD*%
%TA.AperFunction,ComponentPad*%
%ADD13R,1.800000X1.800000*%
%TD*%
%TA.AperFunction,ComponentPad*%
%ADD14R,1.600000X1.600000*%
%TD*%
%TA.AperFunction,ComponentPad*%
%ADD15C,2.000000*%
%TD*%
%TA.AperFunction,ViaPad*%
%ADD16C,0.800000*%
%TD*%
%TA.AperFunction,ViaPad*%
%ADD17C,1.524000*%
%TD*%
%TA.AperFunction,Conductor*%
%ADD18C,0.381000*%
%TD*%
%TA.AperFunction,Conductor*%
%ADD19C,0.889000*%
%TD*%
%TA.AperFunction,Conductor*%
%ADD20C,0.250000*%
%TD*%
G04 APERTURE END LIST*
D10*
%TO.P,R18,2*%
%TO.N,Net-(D1-Pad2)*%
X48025000Y-77130000D03*
D11*
%TO.P,R18,1*%
%TO.N,Net-(3SB2-Pad8)*%
X48025000Y-72050000D03*
%TD*%
D10*
%TO.P,R16,2*%
%TO.N,Net-(D1-Pad2)*%
X47200000Y-92705000D03*
D11*
%TO.P,R16,1*%
%TO.N,Net-(3SB2-Pad11)*%
X47200000Y-87625000D03*
%TD*%
D10*
%TO.P,R14,2*%
%TO.N,Net-(D1-Pad2)*%
X77100000Y-76980000D03*
D11*
%TO.P,R14,1*%
%TO.N,Net-(3SB2-Pad3)*%
X77100000Y-71900000D03*
%TD*%
D10*
%TO.P,R12,2*%
%TO.N,Net-(D1-Pad2)*%
X77100000Y-92780000D03*
D11*
%TO.P,R12,1*%
%TO.N,Net-(3SB2-Pad6)*%
X77100000Y-87700000D03*
%TD*%
D10*
%TO.P,R10,2*%
%TO.N,Net-(D1-Pad2)*%
X103600000Y-168405000D03*
D11*
%TO.P,R10,1*%
%TO.N,Net-(3SB1-Pad8)*%
X103600000Y-163325000D03*
%TD*%
D10*
%TO.P,R8,2*%
%TO.N,Net-(D1-Pad2)*%
X103625000Y-154855000D03*
D11*
%TO.P,R8,1*%
%TO.N,Net-(3SB1-Pad11)*%
X103625000Y-149775000D03*
%TD*%
D10*
%TO.P,R6,2*%
%TO.N,Net-(D1-Pad2)*%
X72600000Y-168180000D03*
D11*
%TO.P,R6,1*%
%TO.N,Net-(3SB1-Pad3)*%
X72600000Y-163100000D03*
%TD*%
D10*
%TO.P,R4,2*%
%TO.N,Net-(D1-Pad2)*%
X72759400Y-154934000D03*
D11*
%TO.P,R4,1*%
%TO.N,Net-(3SB1-Pad6)*%
X72759400Y-149854000D03*
%TD*%
D12*
%TO.P,D8,2*%
%TO.N,Net-(D1-Pad2)*%
X51675000Y-79635000D03*
D13*
%TO.P,D8,1*%
%TO.N,Net-(3SB2-Pad8)*%
X51675000Y-69475000D03*
%TD*%
D12*
%TO.P,D7,2*%
%TO.N,Net-(D1-Pad2)*%
X51400000Y-95135000D03*
D13*
%TO.P,D7,1*%
%TO.N,Net-(3SB2-Pad11)*%
X51400000Y-84975000D03*
%TD*%
D12*
%TO.P,D6,2*%
%TO.N,Net-(D1-Pad2)*%
X80850000Y-79710000D03*
D13*
%TO.P,D6,1*%
%TO.N,Net-(3SB2-Pad3)*%
X80850000Y-69550000D03*
%TD*%
D12*
%TO.P,D5,2*%
%TO.N,Net-(D1-Pad2)*%
X81000000Y-94985000D03*
D13*
%TO.P,D5,1*%
%TO.N,Net-(3SB2-Pad6)*%
X81000000Y-84825000D03*
%TD*%
D12*
%TO.P,D4,2*%
%TO.N,Net-(D1-Pad2)*%
X107375000Y-171085000D03*
D13*
%TO.P,D4,1*%
%TO.N,Net-(3SB1-Pad8)*%
X107375000Y-160925000D03*
%TD*%
D12*
%TO.P,D3,2*%
%TO.N,Net-(D1-Pad2)*%
X107400000Y-157235000D03*
D13*
%TO.P,D3,1*%
%TO.N,Net-(3SB1-Pad11)*%
X107400000Y-147075000D03*
%TD*%
D12*
%TO.P,D2,2*%
%TO.N,Net-(D1-Pad2)*%
X76500000Y-170960000D03*
D13*
%TO.P,D2,1*%
%TO.N,Net-(3SB1-Pad3)*%
X76500000Y-160800000D03*
%TD*%
%TO.P,D1,1*%
%TO.N,Net-(3SB1-Pad6)*%
X76500000Y-147100000D03*
D12*
%TO.P,D1,2*%
%TO.N,Net-(D1-Pad2)*%
X76500000Y-157260000D03*
%TD*%
D11*
%TO.P,U10,VIN*%
%TO.N,VDD*%
X71655000Y-85100000D03*
%TO.P,U10,GND*%
%TO.N,GND*%
X69115000Y-85100000D03*
%TO.P,U10,3V3*%
%TO.N,Net-(U10-Pad3V3)*%
X66575000Y-85100000D03*
%TO.P,U10,SCL*%
%TO.N,Net-(R1-Pad2)*%
X64035000Y-85100000D03*
%TO.P,U10,SDA*%
%TO.N,Net-(3SB2-Pad8)*%
X61495000Y-85100000D03*
%TO.P,U10,INT*%
%TO.N,Net-(U10-PadINT)*%
X58955000Y-85100000D03*
%TO.P,U10,LED*%
%TO.N,GND*%
X56415000Y-85100000D03*
%TD*%
%TO.P,U9,VIN*%
%TO.N,VDD*%
X71655000Y-91450000D03*
%TO.P,U9,GND*%
%TO.N,GND*%
X69115000Y-91450000D03*
%TO.P,U9,3V3*%
%TO.N,Net-(U9-Pad3V3)*%
X66575000Y-91450000D03*
%TO.P,U9,SCL*%
%TO.N,Net-(R1-Pad2)*%
X64035000Y-91450000D03*
%TO.P,U9,SDA*%
%TO.N,Net-(3SB2-Pad11)*%
X61495000Y-91450000D03*
%TO.P,U9,INT*%
%TO.N,Net-(U10-PadINT)*%
X58955000Y-91450000D03*
%TO.P,U9,LED*%
%TO.N,GND*%
X56415000Y-91450000D03*
%TD*%
%TO.P,U8,VIN*%
%TO.N,VDD*%
X100865000Y-85100000D03*
%TO.P,U8,GND*%
%TO.N,GND*%
X98325000Y-85100000D03*
%TO.P,U8,3V3*%
%TO.N,Net-(U8-Pad3V3)*%
X95785000Y-85100000D03*
%TO.P,U8,SCL*%
%TO.N,Net-(R1-Pad2)*%
X93245000Y-85100000D03*
%TO.P,U8,SDA*%
%TO.N,Net-(3SB2-Pad3)*%
X90705000Y-85100000D03*
%TO.P,U8,INT*%
%TO.N,Net-(U10-PadINT)*%
X88165000Y-85100000D03*
%TO.P,U8,LED*%
%TO.N,GND*%
X85625000Y-85100000D03*
%TD*%
%TO.P,U7,VIN*%
%TO.N,VDD*%
X100865000Y-91450000D03*
%TO.P,U7,GND*%
%TO.N,GND*%
X98325000Y-91450000D03*
%TO.P,U7,3V3*%
%TO.N,Net-(U7-Pad3V3)*%
X95785000Y-91450000D03*
%TO.P,U7,SCL*%
%TO.N,Net-(R1-Pad2)*%
X93245000Y-91450000D03*
%TO.P,U7,SDA*%
%TO.N,Net-(3SB2-Pad6)*%
X90705000Y-91450000D03*
%TO.P,U7,INT*%
%TO.N,Net-(U10-PadINT)*%
X88165000Y-91450000D03*
%TO.P,U7,LED*%
%TO.N,GND*%
X85625000Y-91450000D03*
%TD*%
%TO.P,U6,VIN*%
%TO.N,VDD*%
X83800000Y-154025000D03*
%TO.P,U6,GND*%
%TO.N,GND*%
X86340000Y-154025000D03*
%TO.P,U6,3V3*%
%TO.N,Net-(U6-Pad3V3)*%
X88880000Y-154025000D03*
%TO.P,U6,SCL*%
%TO.N,Net-(R1-Pad2)*%
X91420000Y-154025000D03*
%TO.P,U6,SDA*%
%TO.N,Net-(3SB1-Pad8)*%
X93960000Y-154025000D03*
%TO.P,U6,INT*%
%TO.N,Net-(U10-PadINT)*%
X96500000Y-154025000D03*
%TO.P,U6,LED*%
%TO.N,GND*%
X99040000Y-154025000D03*
%TD*%
%TO.P,U5,VIN*%
%TO.N,VDD*%
X83800000Y-146405000D03*
%TO.P,U5,GND*%
%TO.N,GND*%
X86340000Y-146405000D03*
%TO.P,U5,3V3*%
%TO.N,Net-(U5-Pad3V3)*%
X88880000Y-146405000D03*
%TO.P,U5,SCL*%
%TO.N,Net-(R1-Pad2)*%
X91420000Y-146405000D03*
%TO.P,U5,SDA*%
%TO.N,Net-(3SB1-Pad11)*%
X93960000Y-146405000D03*
%TO.P,U5,INT*%
%TO.N,Net-(U10-PadINT)*%
X96500000Y-146405000D03*
%TO.P,U5,LED*%
%TO.N,GND*%
X99040000Y-146405000D03*
%TD*%
%TO.P,U4,VIN*%
%TO.N,VDD*%
X52960000Y-154025000D03*
%TO.P,U4,GND*%
%TO.N,GND*%
X55500000Y-154025000D03*
%TO.P,U4,3V3*%
%TO.N,Net-(U4-Pad3V3)*%
X58040000Y-154025000D03*
%TO.P,U4,SCL*%
%TO.N,Net-(R1-Pad2)*%
X60580000Y-154025000D03*
%TO.P,U4,SDA*%
%TO.N,Net-(3SB1-Pad3)*%
X63120000Y-154025000D03*
%TO.P,U4,INT*%
%TO.N,Net-(U10-PadINT)*%
X65660000Y-154025000D03*
%TO.P,U4,LED*%
%TO.N,GND*%
X68200000Y-154025000D03*
%TD*%
%TO.P,U3,VIN*%
%TO.N,VDD*%
X52985000Y-146405000D03*
%TO.P,U3,GND*%
%TO.N,GND*%
X55525000Y-146405000D03*
%TO.P,U3,3V3*%
%TO.N,Net-(U3-Pad3V3)*%
X58065000Y-146405000D03*
%TO.P,U3,SCL*%
%TO.N,Net-(R1-Pad2)*%
X60605000Y-146405000D03*
%TO.P,U3,SDA*%
%TO.N,Net-(3SB1-Pad6)*%
X63145000Y-146405000D03*
%TO.P,U3,INT*%
%TO.N,Net-(U10-PadINT)*%
X65685000Y-146405000D03*
%TO.P,U3,LED*%
%TO.N,GND*%
X68225000Y-146405000D03*
%TD*%
%TO.P,DECODER1,9*%
%TO.N,/~Y7*%
X43537200Y-109357000D03*
%TO.P,DECODER1,8*%
%TO.N,GND*%
X43537200Y-101737000D03*
%TO.P,DECODER1,16*%
%TO.N,VDD*%
X61317200Y-109357000D03*
%TO.P,DECODER1,15*%
%TO.N,Net-(DECODER1-Pad15)*%
X58777200Y-109357000D03*
%TO.P,DECODER1,14*%
%TO.N,Net-(DECODER1-Pad14)*%
X56237200Y-109357000D03*
%TO.P,DECODER1,13*%
%TO.N,Net-(DECODER1-Pad13)*%
X53697200Y-109357000D03*
%TO.P,DECODER1,12*%
%TO.N,GND*%
X51157200Y-109357000D03*
%TO.P,DECODER1,11*%
%TO.N,/~Y9*%
X48617200Y-109357000D03*
%TO.P,DECODER1,10*%
%TO.N,/~Y8*%
X46077200Y-109357000D03*
%TO.P,DECODER1,7*%
%TO.N,/~Y6*%
X46077200Y-101737000D03*
%TO.P,DECODER1,6*%
%TO.N,/~Y5*%
X48617200Y-101737000D03*
%TO.P,DECODER1,5*%
%TO.N,/~Y4*%
X51157200Y-101737000D03*
%TO.P,DECODER1,4*%
%TO.N,/~Y3*%
X53697200Y-101737000D03*
%TO.P,DECODER1,3*%
%TO.N,/~Y2*%
X56237200Y-101737000D03*
%TO.P,DECODER1,2*%
%TO.N,/~Y1*%
X58777200Y-101737000D03*
D14*
%TO.P,DECODER1,1*%
%TO.N,/~Y0*%
X61317200Y-101737000D03*
%TD*%
D10*
%TO.P,R1,2*%
%TO.N,Net-(R1-Pad2)*%
X44550000Y-141245000D03*
D11*
%TO.P,R1,1*%
%TO.N,VDD*%
X44550000Y-146325000D03*
%TD*%
D15*
%TO.P,VDD,2*%
%TO.N,VDD*%
X34850000Y-146300000D03*
%TO.P,VDD,1*%
%TO.N,GND*%
X34850000Y-148840000D03*
%TD*%
%TO.P,U2,15*%
%TO.N,Net-(R1-Pad2)*%
X34825000Y-97800000D03*
%TO.P,U2,14*%
%TO.N,Net-(U10-PadINT)*%
X34825000Y-100340000D03*
%TO.P,U2,13*%
%TO.N,Net-(D1-Pad2)*%
X34825000Y-102880000D03*
%TO.P,U2,12*%
%TO.N,Net-(DECODER1-Pad15)*%
X34825000Y-105420000D03*
%TO.P,U2,11*%
%TO.N,Net-(DECODER1-Pad14)*%
X34825000Y-107960000D03*
%TO.P,U2,10*%
%TO.N,Net-(DECODER1-Pad13)*%
X34825000Y-110500000D03*
%TO.P,U2,9*%
%TO.N,Net-(U2-Pad9)*%
X34825000Y-113040000D03*
%TO.P,U2,8*%
%TO.N,Net-(LED1-Pad1)*%
X34825000Y-115580000D03*
%TO.P,U2,7*%
%TO.N,Net-(LED1-Pad3)*%
X34825000Y-118120000D03*
%TO.P,U2,6*%
%TO.N,Net-(LED1-Pad5)*%
X34825000Y-120660000D03*
%TO.P,U2,5*%
%TO.N,Net-(LED1-Pad7)*%
X34825000Y-123200000D03*
%TO.P,U2,4*%
%TO.N,Net-(LED2-Pad8)*%
X34825000Y-125740000D03*
%TO.P,U2,3*%
%TO.N,Net-(LED2-Pad6)*%
X34825000Y-128280000D03*
%TO.P,U2,2*%
%TO.N,Net-(LED2-Pad4)*%
X34825000Y-130820000D03*
%TO.P,U2,1*%
%TO.N,Net-(LED2-Pad2)*%
X34825000Y-133360000D03*
%TD*%
D16*
%TO.N,/~Y0*%
X86250000Y-101625000D03*
%TO.N,Net-(3SB1-Pad3)*%
X79200000Y-152975000D03*
%TO.N,/~Y1*%
X86275000Y-105425000D03*
D17*
%TO.N,GND*%
X40500000Y-103475000D03*
X40500000Y-109450000D03*
X74950000Y-109350000D03*
X74950000Y-113575000D03*
X90825000Y-100850000D03*
X94450000Y-97225000D03*
D16*
%TO.N,Net-(3SB1-Pad8)*%
X94040000Y-140760000D03*
X95475000Y-109225000D03*
%TO.N,/~Y3*%
X92850000Y-106700000D03*
%TO.N,VDD*%
X78513000Y-98987000D03*
X81488000Y-98987000D03*
X74825000Y-95180058D03*
%TO.N,/~Y7*%
X77250000Y-107975000D03*
%TO.N,Net-(3SB2-Pad11)*%
X75050000Y-96575000D03*
%TO.N,Net-(3SB2-Pad8)*%
X75325000Y-94200000D03*
%TO.N,/~Y6*%
X77250000Y-104150000D03*
%TO.N,Net-(3SB2-Pad3)*%
X77425000Y-83875000D03*
%TO.N,/~Y2*%
X92900000Y-102875000D03*
X56250000Y-99275000D03*
D17*
%TO.N,Net-(LED1-Pad7)*%
X55575000Y-116825000D03*
%TO.N,Net-(LED1-Pad4)*%
X55600000Y-121300000D03*
X64675000Y-115250000D03*
%TO.N,Net-(LED1-Pad2)*%
X55600000Y-118775000D03*
X67193499Y-113843499D03*
%TO.N,Net-(LED2-Pad1)*%
X64750000Y-134525000D03*
X55675000Y-128475000D03*
%TO.N,Net-(LED2-Pad2)*%
X50125000Y-129750000D03*
%TO.N,Net-(LED2-Pad5)*%
X67293499Y-135931501D03*
X55700000Y-131000000D03*
%TO.N,Net-(LED5-Pad4)*%
X82450000Y-115250000D03*
X73375000Y-121300000D03*
%TO.N,Net-(LED5-Pad2)*%
X84993499Y-113818499D03*
X73400000Y-118750000D03*
%TO.N,Net-(LED6-Pad3)*%
X73475000Y-131025000D03*
X85068499Y-135956501D03*
%TO.N,Net-(LED6-Pad1)*%
X73450000Y-128475000D03*
X82525000Y-134525000D03*
%TO.N,Net-(LED10-Pad7)*%
X96100000Y-117500000D03*
X96150000Y-129750000D03*
%TO.N,Net-(LED10-Pad3)*%
X91200000Y-131025000D03*
X91125000Y-121300000D03*
%TO.N,Net-(LED10-Pad1)*%
X91175000Y-128475000D03*
X91150000Y-118750000D03*
D16*
%TO.N,Net-(U10-PadINT)*%
X79075000Y-83600000D03*
%TD*%
D18*
%TO.N,/~Y0*%
X61429200Y-101625000D02*
X61317200Y-101737000D01*
X86250000Y-101625000D02*
X61429200Y-101625000D01*
%TO.N,Net-(3SB1-Pad3)*%
X79200000Y-158100000D02*
X76500000Y-160800000D01*
X79200000Y-152975000D02*
X79200000Y-158100000D01*
%TO.N,/~Y1*%
X60399699Y-103359499D02*
X58777200Y-101737000D01*
X84209499Y-103359499D02*
X60399699Y-103359499D01*
X86275000Y-105425000D02*
X84209499Y-103359499D01*
%TO.N,Net-(3SB1-Pad6)*%
X76500000Y-147100000D02*
X70950000Y-147100000D01*
X70950000Y-147100000D02*
X69300000Y-148750000D01*
X69300000Y-148750000D02*
X63975000Y-148750000D01*
X63145000Y-147920000D02*
X63145000Y-146405000D01*
X63975000Y-148750000D02*
X63145000Y-147920000D01*
D19*
%TO.N,GND*%
X40500000Y-103475000D02*
X40500000Y-109450000D01*
X40500000Y-109450000D02*
X40500000Y-109650000D01*
X74950000Y-109350000D02*
X74950000Y-113575000D01*
X74950000Y-113575000D02*
X74950000Y-113800000D01*
X90825000Y-100850000D02*
X94450000Y-97225000D01*
X94450000Y-97225000D02*
X94450000Y-97225000D01*
D18*
%TO.N,Net-(3SB1-Pad8)*%
X95475000Y-109225000D02*
X97050000Y-109225000D01*
X97050000Y-109225000D02*
X99275000Y-111450000D01*
X99275000Y-111450000D02*
X99275000Y-133775000D01*
X99275000Y-133775000D02*
X93975000Y-139075000D01*
X93975000Y-140695000D02*
X94040000Y-140760000D01*
X93975000Y-139075000D02*
X93975000Y-140695000D01*
%TO.N,Net-(3SB1-Pad11)*%
X107400000Y-147075000D02*
X101725000Y-147075000D01*
X101725000Y-147075000D02*
X100375000Y-148425000D01*
X100375000Y-148425000D02*
X94525000Y-148425000D01*
X93960000Y-147860000D02*
X93960000Y-146405000D01*
X94525000Y-148425000D02*
X93960000Y-147860000D01*
%TO.N,/~Y3*%
X54887701Y-100546499D02*
X53697200Y-101737000D01*
X86696499Y-100546499D02*
X54887701Y-100546499D01*
X92850000Y-106700000D02*
X86696499Y-100546499D01*
%TO.N,VDD*%
X78513000Y-98987000D02*
X81488000Y-98987000D01*
X81488000Y-98987000D02*
X81613000Y-98987000D01*
X71655000Y-92010058D02*
X71655000Y-91450000D01*
X74825000Y-95180058D02*
X71655000Y-92010058D01*
X52985000Y-146405000D02*
X52985000Y-144340000D01*
X52985000Y-144340000D02*
X54775000Y-142550000D01*
X54775000Y-142550000D02*
X82625000Y-142550000D01*
X82625000Y-142550000D02*
X83800000Y-143725000D01*
X83800000Y-146405000D02*
X83800000Y-143725000D01*
X100865000Y-134985000D02*
X100865000Y-91450000D01*
X100865000Y-135104942D02*
X100865000Y-134985000D01*
X85225000Y-142275000D02*
X93694942Y-142275000D01*
X93694942Y-142275000D02*
X100865000Y-135104942D01*
X83800000Y-143700000D02*
X85225000Y-142275000D01*
X83800000Y-143725000D02*
X83800000Y-143700000D01*
%TO.N,/~Y7*%
X44919200Y-107975000D02*
X43537200Y-109357000D01*
X77250000Y-107975000D02*
X44919200Y-107975000D01*
%TO.N,Net-(3SB2-Pad11)*%
X47200000Y-87625000D02*
X47200000Y-85575000D01*
X47800000Y-84975000D02*
X51400000Y-84975000D01*
X47200000Y-85575000D02*
X47800000Y-84975000D01*
X51400000Y-84975000D02*
X51400000Y-87000000D01*
X51400000Y-87000000D02*
X53225000Y-88825000D01*
X53225000Y-88825000D02*
X60650000Y-88825000D01*
X61495000Y-89670000D02*
X61495000Y-91450000D01*
X60650000Y-88825000D02*
X61495000Y-89670000D01*
X75050000Y-96575000D02*
X64750000Y-96575000D01*
X61495000Y-93320000D02*
X61495000Y-91450000D01*
X64750000Y-96575000D02*
X61495000Y-93320000D01*
%TO.N,Net-(3SB2-Pad8)*%
X48025000Y-72050000D02*
X48025000Y-70300000D01*
X48850000Y-69475000D02*
X51675000Y-69475000D01*
X48025000Y-70300000D02*
X48850000Y-69475000D01*
X51675000Y-69475000D02*
X57125000Y-69475000D01*
X61495000Y-73845000D02*
X61495000Y-85100000D01*
X57125000Y-69475000D02*
X61495000Y-73845000D01*
X75325000Y-94200000D02*
X75325000Y-90725000D01*
X75325000Y-90725000D02*
X71675000Y-87075000D01*
X63470000Y-87075000D02*
X61495000Y-85100000D01*
X71675000Y-87075000D02*
X63470000Y-87075000D01*
%TO.N,Net-(3SB2-Pad6)*%
X77100000Y-87700000D02*
X77100000Y-86000000D01*
X78275000Y-84825000D02*
X81000000Y-84825000D01*
X77100000Y-86000000D02*
X78275000Y-84825000D01*
X81000000Y-84825000D02*
X81000000Y-86875000D01*
X81000000Y-86875000D02*
X82875000Y-88750000D01*
X82875000Y-88750000D02*
X89775000Y-88750000D01*
X90705000Y-89680000D02*
X90705000Y-91450000D01*
X89775000Y-88750000D02*
X90705000Y-89680000D01*
%TO.N,/~Y6*%
X77250000Y-104150000D02*
X46875000Y-104150000D01*
X46077200Y-103352200D02*
X46077200Y-101737000D01*
X46875000Y-104150000D02*
X46077200Y-103352200D01*
%TO.N,Net-(3SB2-Pad3)*%
X77100000Y-71900000D02*
X77100000Y-70725000D01*
X78275000Y-69550000D02*
X80850000Y-69550000D01*
X77100000Y-70725000D02*
X78275000Y-69550000D01*
X77425000Y-83875000D02*
X78650000Y-82650000D01*
X88255000Y-82650000D02*
X90705000Y-85100000D01*
X78650000Y-82650000D02*
X88255000Y-82650000D01*
%TO.N,Net-(D1-Pad2)*%
X47200000Y-92705000D02*
X47200000Y-94050000D01*
X48285000Y-95135000D02*
X51400000Y-95135000D01*
X47200000Y-94050000D02*
X48285000Y-95135000D01*
X77100000Y-92780000D02*
X77100000Y-94125000D01*
X77960000Y-94985000D02*
X81000000Y-94985000D01*
X77100000Y-94125000D02*
X77960000Y-94985000D01*
X48025000Y-77130000D02*
X48025000Y-78750000D01*
X48910000Y-79635000D02*
X51675000Y-79635000D01*
X48025000Y-78750000D02*
X48910000Y-79635000D01*
X77100000Y-76980000D02*
X77100000Y-78650000D01*
X78160000Y-79710000D02*
X80850000Y-79710000D01*
X77100000Y-78650000D02*
X78160000Y-79710000D01*
X51400000Y-95135000D02*
X51400000Y-96625000D01*
X51400000Y-96625000D02*
X52650000Y-97875000D01*
X52650000Y-97875000D02*
X80275000Y-97875000D01*
X81000000Y-97150000D02*
X81000000Y-94985000D01*
X80275000Y-97875000D02*
X81000000Y-97150000D01*
X38370000Y-102880000D02*
X47200000Y-94050000D01*
X34825000Y-102880000D02*
X38370000Y-102880000D01*
X111000000Y-96925000D02*
X111000000Y-153635000D01*
X97826002Y-88550000D02*
X102625000Y-88550000D01*
X96975501Y-92021441D02*
X96975501Y-89400501D01*
X90996942Y-98000000D02*
X96975501Y-92021441D01*
X111000000Y-153635000D02*
X107400000Y-157235000D01*
X102625000Y-88550000D02*
X111000000Y-96925000D01*
X81875000Y-98000000D02*
X90996942Y-98000000D01*
X96975501Y-89400501D02*
X97826002Y-88550000D01*
X81025000Y-97150000D02*
X81875000Y-98000000D01*
X81000000Y-97150000D02*
X81025000Y-97150000D01*
%TO.N,/~Y2*%
X56940489Y-99965489D02*
X56250000Y-99275000D01*
X56250000Y-99275000D02*
X56250000Y-99275000D01*
X56940489Y-99965489D02*
X86937162Y-99965490D01*
X89846672Y-102875000D02*
X92900000Y-102875000D01*
X86937162Y-99965490D02*
X89846672Y-102875000D01*
D19*
%TO.N,Net-(LED1-Pad7)*%
X34825000Y-123200000D02*
X37450000Y-123200000D01*
X37450000Y-123200000D02*
X43825000Y-116825000D01*
X43825000Y-116825000D02*
X55575000Y-116825000D01*
X55575000Y-116825000D02*
X55725000Y-116825000D01*
%TO.N,Net-(LED1-Pad4)*%
X55600000Y-121300000D02*
X56950000Y-121300000D01*
X56950000Y-121300000D02*
X63000000Y-115250000D01*
X63000000Y-115250000D02*
X64675000Y-115250000D01*
X64675000Y-115250000D02*
X64675000Y-115250000D01*
%TO.N,Net-(LED1-Pad2)*%
X55600000Y-118775000D02*
X57575000Y-118775000D01*
X62506501Y-113843499D02*
X67193499Y-113843499D01*
X57575000Y-118775000D02*
X62506501Y-113843499D01*
X67193499Y-113843499D02*
X67193499Y-113843499D01*
%TO.N,Net-(LED2-Pad1)*%
X57025000Y-128475000D02*
X63075000Y-134525000D01*
X55675000Y-128475000D02*
X57025000Y-128475000D01*
X63075000Y-134525000D02*
X64750000Y-134525000D01*
%TO.N,Net-(LED2-Pad2)*%
X34825000Y-133360000D02*
X46515000Y-133360000D01*
X46515000Y-133360000D02*
X50125000Y-129750000D01*
X50125000Y-129750000D02*
X50125000Y-129750000D01*
%TO.N,Net-(LED2-Pad5)*%
X55700000Y-131000000D02*
X57675000Y-131000000D01*
X57675000Y-131000000D02*
X62606501Y-135931501D01*
X62606501Y-135931501D02*
X67293499Y-135931501D01*
%TO.N,Net-(LED5-Pad4)*%
X74725000Y-121300000D02*
X80775000Y-115250000D01*
X73375000Y-121300000D02*
X74725000Y-121300000D01*
X80775000Y-115250000D02*
X82450000Y-115250000D01*
%TO.N,Net-(LED5-Pad2)*%
X73400000Y-118750000D02*
X75375000Y-118750000D01*
X75375000Y-118750000D02*
X80306501Y-113818499D01*
X80306501Y-113818499D02*
X84993499Y-113818499D01*
%TO.N,Net-(LED6-Pad3)*%
X73475000Y-131025000D02*
X75450000Y-131025000D01*
X80381501Y-135956501D02*
X85068499Y-135956501D01*
X75450000Y-131025000D02*
X80381501Y-135956501D01*
%TO.N,Net-(LED6-Pad1)*%
X80850000Y-134525000D02*
X82525000Y-134525000D01*
X73450000Y-128475000D02*
X74800000Y-128475000D01*
X74800000Y-128475000D02*
X80850000Y-134525000D01*
%TO.N,Net-(LED10-Pad7)*%
X96150000Y-117550000D02*
X96100000Y-117500000D01*
X96150000Y-129750000D02*
X96150000Y-117550000D01*
%TO.N,Net-(LED10-Pad3)*%
X91200000Y-131025000D02*
X92650000Y-131025000D01*
X92650000Y-131025000D02*
X93275000Y-130400000D01*
X93275000Y-130400000D02*
X93275000Y-122200000D01*
X92375000Y-121300000D02*
X91125000Y-121300000D01*
X93275000Y-122200000D02*
X92375000Y-121300000D01*
%TO.N,Net-(LED10-Pad1)*%
X91175000Y-128475000D02*
X89650000Y-128475000D01*
X89650000Y-128475000D02*
X88425000Y-127250000D01*
X88425000Y-127250000D02*
X88425000Y-119750000D01*
X89425000Y-118750000D02*
X91150000Y-118750000D01*
X88425000Y-119750000D02*
X89425000Y-118750000D01*
D18*
%TO.N,Net-(R1-Pad2)*%
X64035000Y-89510000D02*
X64035000Y-91450000D01*
X61725000Y-87200000D02*
X64035000Y-89510000D01*
X55025000Y-87200000D02*
X61725000Y-87200000D01*
X54250000Y-86425000D02*
X55025000Y-87200000D01*
X54250000Y-84075000D02*
X54250000Y-86425000D01*
X46650000Y-83175000D02*
X53350000Y-83175000D01*
X34825000Y-95000000D02*
X46650000Y-83175000D01*
X53350000Y-83175000D02*
X54250000Y-84075000D01*
X34825000Y-97800000D02*
X34825000Y-95000000D01*
D20*
X91420000Y-152395000D02*
X91420000Y-154025000D01*
X90800000Y-151775000D02*
X91420000Y-152395000D01*
X63425000Y-151775000D02*
X90800000Y-151775000D01*
X60605000Y-148955000D02*
X63425000Y-151775000D01*
X60605000Y-146405000D02*
X60605000Y-148955000D01*
X93245000Y-85100000D02*
X89745000Y-81600000D01*
X67535000Y-81600000D02*
X64035000Y-85100000D01*
X89745000Y-81600000D02*
X67535000Y-81600000D01*
D18*
%TO.N,Net-(U10-PadINT)*%
X65685000Y-146405000D02*
X67540000Y-144550000D01*
X67540000Y-144550000D02*
X78325000Y-144550000D01*
X78325000Y-144550000D02*
X83950000Y-150175000D01*
X83950000Y-150175000D02*
X95150000Y-150175000D01*
X96500000Y-151525000D02*
X96500000Y-154025000D01*
X95150000Y-150175000D02*
X96500000Y-151525000D01*
D20*
X88165000Y-85100000D02*
X86665000Y-83600000D01*
X86665000Y-83600000D02*
X79075000Y-83600000D01*
X79075000Y-83600000D02*
X79075000Y-83600000D01*
%TD*%
M02*
