%TF.GenerationSoftware,KiCad,Pcbnew,(5.1.7)-1*%
%TF.CreationDate,2021-02-06T18:02:14-06:00*%
%TF.ProjectId,SLEDBoard,534c4544-426f-4617-9264-2e6b69636164,v01*%
%TF.SameCoordinates,Original*%
%TF.FileFunction,Paste,Top*%
%TF.FilePolarity,Positive*%
%FSLAX46Y46*%
G04 Gerber Fmt 4.6, Leading zero omitted, Abs format (unit mm)*
G04 Created by KiCad (PCBNEW (5.1.7)-1) date 2021-02-06 18:02:14*
%MOMM*%
%LPD*%
G01*
G04 APERTURE LIST*
%ADD10R,1.100000X0.510000*%
%ADD11R,1.100000X0.900000*%
%ADD12R,0.900000X1.100000*%
G04 APERTURE END LIST*
D10*
%TO.C,3SB1*%
X94210200Y-101610000D03*
X94210200Y-102880000D03*
X94210200Y-104150000D03*
X94210200Y-105420000D03*
X94210200Y-106690000D03*
X94210200Y-107960000D03*
X94210200Y-109230000D03*
X87510200Y-109230000D03*
X87510200Y-107960000D03*
X87510200Y-106690000D03*
X87510200Y-105420000D03*
X87510200Y-104150000D03*
X87510200Y-102880000D03*
X87510200Y-101610000D03*
%TD*%
%TO.C,3SB2*%
X78513000Y-101610000D03*
X78513000Y-102880000D03*
X78513000Y-104150000D03*
X78513000Y-105420000D03*
X78513000Y-106690000D03*
X78513000Y-107960000D03*
X78513000Y-109230000D03*
X71813000Y-109230000D03*
X71813000Y-107960000D03*
X71813000Y-106690000D03*
X71813000Y-105420000D03*
X71813000Y-104150000D03*
X71813000Y-102880000D03*
X71813000Y-101610000D03*
%TD*%
D11*
%TO.C,LED1*%
X58949920Y-121300080D03*
X58949920Y-120030080D03*
X58949920Y-118760080D03*
X58949920Y-117490080D03*
X54049920Y-121300080D03*
X54049920Y-120030080D03*
X54049920Y-118760080D03*
X54049920Y-117490080D03*
%TD*%
%TO.C,LED2*%
X59024920Y-132285080D03*
X59024920Y-131015080D03*
X59024920Y-129745080D03*
X59024920Y-128475080D03*
X54124920Y-132285080D03*
X54124920Y-131015080D03*
X54124920Y-129745080D03*
X54124920Y-128475080D03*
%TD*%
D12*
%TO.C,LED3*%
X63394920Y-121924920D03*
X64664920Y-121924920D03*
X65934920Y-121924920D03*
X67204920Y-121924920D03*
X63394920Y-117024920D03*
X64664920Y-117024920D03*
X65934920Y-117024920D03*
X67204920Y-117024920D03*
%TD*%
%TO.C,LED4*%
X67290080Y-127840080D03*
X66020080Y-127840080D03*
X64750080Y-127840080D03*
X63480080Y-127840080D03*
X67290080Y-132740080D03*
X66020080Y-132740080D03*
X64750080Y-132740080D03*
X63480080Y-132740080D03*
%TD*%
D11*
%TO.C,LED5*%
X76729920Y-121300080D03*
X76729920Y-120030080D03*
X76729920Y-118760080D03*
X76729920Y-117490080D03*
X71829920Y-121300080D03*
X71829920Y-120030080D03*
X71829920Y-118760080D03*
X71829920Y-117490080D03*
%TD*%
%TO.C,LED6*%
X76804920Y-132285080D03*
X76804920Y-131015080D03*
X76804920Y-129745080D03*
X76804920Y-128475080D03*
X71904920Y-132285080D03*
X71904920Y-131015080D03*
X71904920Y-129745080D03*
X71904920Y-128475080D03*
%TD*%
D12*
%TO.C,LED7*%
X81174920Y-121924920D03*
X82444920Y-121924920D03*
X83714920Y-121924920D03*
X84984920Y-121924920D03*
X81174920Y-117024920D03*
X82444920Y-117024920D03*
X83714920Y-117024920D03*
X84984920Y-117024920D03*
%TD*%
%TO.C,LED8*%
X85070080Y-127840080D03*
X83800080Y-127840080D03*
X82530080Y-127840080D03*
X81260080Y-127840080D03*
X85070080Y-132740080D03*
X83800080Y-132740080D03*
X82530080Y-132740080D03*
X81260080Y-132740080D03*
%TD*%
D11*
%TO.C,LED9*%
X94509920Y-121300080D03*
X94509920Y-120030080D03*
X94509920Y-118760080D03*
X94509920Y-117490080D03*
X89609920Y-121300080D03*
X89609920Y-120030080D03*
X89609920Y-118760080D03*
X89609920Y-117490080D03*
%TD*%
%TO.C,LED10*%
X94584920Y-132285080D03*
X94584920Y-131015080D03*
X94584920Y-129745080D03*
X94584920Y-128475080D03*
X89684920Y-132285080D03*
X89684920Y-131015080D03*
X89684920Y-129745080D03*
X89684920Y-128475080D03*
%TD*%
M02*
