M48
; DRILL file {KiCad (5.1.7)-1} date 02/06/21 18:02:19
; FORMAT={-:-/ absolute / inch / decimal}
; #@! TF.CreationDate,2021-02-06T18:02:19-06:00
; #@! TF.GenerationSoftware,Kicad,Pcbnew,(5.1.7)-1
; #@! TF.FileFunction,Plated,1,2,PTH
FMAT,2
INCH
T1C0.0157
T2C0.0315
T3C0.0350
T4C0.0354
T5C0.0394
%
G90
G05
T1
X2.2146Y-3.9085
X2.9459Y-3.7472
X2.9547Y-3.8022
X2.9656Y-3.7087
X3.0413Y-4.1004
X3.0413Y-4.251
X3.0482Y-3.3022
X3.0911Y-3.8971
X3.1132Y-3.2913
X3.1181Y-6.0226
X3.2082Y-3.8971
X3.3957Y-4.001
X3.3967Y-4.1506
X3.6555Y-4.2008
X3.6575Y-4.0502
X3.7024Y-5.5417
X3.7589Y-4.3002
T2
X1.7539Y-5.5608
X1.7539Y-5.7608
X2.8583Y-6.4213
X2.8583Y-6.6213
X3.0354Y-3.4528
X3.0354Y-3.6528
X4.0797Y-5.8967
X4.0797Y-6.0967
X1.8583Y-3.4498
X1.8583Y-3.6498
X3.0354Y-2.8307
X3.0354Y-3.0307
X4.0787Y-6.4301
X4.0787Y-6.6301
X2.8645Y-5.8998
X2.8645Y-6.0998
X1.8907Y-2.8366
X1.8907Y-3.0366
T3
X1.5945Y-4.0738
X1.5945Y-4.3091
X1.9734Y-5.1083
X2.188Y-4.5994
X2.189Y-4.6762
X2.189Y-4.7756
X2.1919Y-5.0581
X2.1929Y-5.1575
X2.5463Y-4.5374
X2.5492Y-5.2963
X2.6454Y-4.482
X2.6494Y-5.3516
X2.8888Y-4.7756
X2.8898Y-4.6752
X2.8917Y-5.0581
X2.8927Y-5.1585
X2.9508Y-4.3051
X2.9508Y-4.4715
X3.2461Y-4.5374
X3.249Y-5.2963
X3.3462Y-4.481
X3.3492Y-5.3526
X3.5758Y-3.9705
X3.5876Y-4.7756
X3.5886Y-4.6752
X3.5896Y-5.0581
X3.5906Y-5.1585
X3.7185Y-3.8278
X3.7835Y-4.626
X3.7854Y-5.1083
T4
X4.2283Y-5.7904
X4.2283Y-6.1904
X2.0344Y-2.7352
X2.0344Y-3.1352
X3.1831Y-2.7382
X3.1831Y-3.1382
X3.189Y-3.3396
X3.189Y-3.7396
X4.2274Y-6.3356
X4.2274Y-6.7356
X3.0118Y-5.7913
X3.0118Y-6.1913
X2.0236Y-3.3455
X2.0236Y-3.7455
X3.0118Y-6.3307
X3.0118Y-6.7307
T5
X1.7141Y-4.0054
X1.7141Y-4.3054
X1.8141Y-4.0054
X1.8141Y-4.3054
X1.9141Y-4.0054
X1.9141Y-4.3054
X2.0141Y-4.0054
X2.0141Y-4.3054
X2.1141Y-4.0054
X2.1141Y-4.3054
X2.2141Y-4.0054
X2.2141Y-4.3054
X2.3141Y-4.0054
X2.3141Y-4.3054
X2.4141Y-4.0054
X2.4141Y-4.3054
X2.085Y-6.064
X2.185Y-6.064
X2.285Y-6.064
X2.385Y-6.064
X2.485Y-6.064
X2.585Y-6.064
X2.685Y-6.064
X2.2211Y-3.6004
X2.3211Y-3.6004
X2.4211Y-3.6004
X2.5211Y-3.6004
X2.6211Y-3.6004
X2.7211Y-3.6004
X2.8211Y-3.6004
X3.3711Y-3.3504
X3.4711Y-3.3504
X3.5711Y-3.3504
X3.6711Y-3.3504
X3.7711Y-3.3504
X3.8711Y-3.3504
X3.9711Y-3.3504
X3.2992Y-6.064
X3.3992Y-6.064
X3.4992Y-6.064
X3.5992Y-6.064
X3.6992Y-6.064
X3.7992Y-6.064
X3.8992Y-6.064
X1.3711Y-3.8504
X1.3711Y-3.9504
X1.3711Y-4.0504
X1.3711Y-4.1504
X1.3711Y-4.2504
X1.3711Y-4.3504
X1.3711Y-4.4504
X1.3711Y-4.5504
X1.3711Y-4.6504
X1.3711Y-4.7504
X1.3711Y-4.8504
X1.3711Y-4.9504
X1.3711Y-5.0504
X1.3711Y-5.1504
X1.3711Y-5.2504
X3.3711Y-3.6004
X3.4711Y-3.6004
X3.5711Y-3.6004
X3.6711Y-3.6004
X3.7711Y-3.6004
X3.8711Y-3.6004
X3.9711Y-3.6004
X2.086Y-5.764
X2.186Y-5.764
X2.286Y-5.764
X2.386Y-5.764
X2.486Y-5.764
X2.586Y-5.764
X2.686Y-5.764
X1.372Y-5.7598
X1.372Y-5.8598
X3.2992Y-5.764
X3.3992Y-5.764
X3.4992Y-5.764
X3.5992Y-5.764
X3.6992Y-5.764
X3.7992Y-5.764
X3.8992Y-5.764
X2.2211Y-3.3504
X2.3211Y-3.3504
X2.4211Y-3.3504
X2.5211Y-3.3504
X2.6211Y-3.3504
X2.7211Y-3.3504
X2.8211Y-3.3504
T0
M30
