%TF.GenerationSoftware,KiCad,Pcbnew,(5.1.7)-1*%
%TF.CreationDate,2021-02-09T15:47:08-06:00*%
%TF.ProjectId,LED-Driver-Board,4c45442d-4472-4697-9665-722d426f6172,rev?*%
%TF.SameCoordinates,Original*%
%TF.FileFunction,Paste,Top*%
%TF.FilePolarity,Positive*%
%FSLAX46Y46*%
G04 Gerber Fmt 4.6, Leading zero omitted, Abs format (unit mm)*
G04 Created by KiCad (PCBNEW (5.1.7)-1) date 2021-02-09 15:47:08*
%MOMM*%
%LPD*%
G01*
G04 APERTURE LIST*
%ADD10R,1.320800X0.406400*%
%ADD11R,1.651000X0.431800*%
%ADD12R,0.550000X3.450000*%
G04 APERTURE END LIST*
D10*
%TO.C,U6*%
X156895800Y-59222640D03*
X156895800Y-59872880D03*
X156895800Y-60523120D03*
X156895800Y-61173360D03*
X152476200Y-61173360D03*
X152476200Y-60523120D03*
X152476200Y-59872880D03*
X152476200Y-59222640D03*
%TD*%
%TO.C,U7*%
X156895800Y-103418640D03*
X156895800Y-104068880D03*
X156895800Y-104719120D03*
X156895800Y-105369360D03*
X152476200Y-105369360D03*
X152476200Y-104719120D03*
X152476200Y-104068880D03*
X152476200Y-103418640D03*
%TD*%
D11*
%TO.C,U1*%
X114945800Y-142703680D03*
X114945800Y-143353920D03*
X114945800Y-144004160D03*
X114945800Y-144654400D03*
X114945800Y-145304640D03*
X114945800Y-145954880D03*
X114945800Y-146605120D03*
X114945800Y-147255360D03*
X114945800Y-147905600D03*
X114945800Y-148555840D03*
X114945800Y-149206080D03*
X114945800Y-149856320D03*
X122210200Y-149856320D03*
X122210200Y-149206080D03*
X122210200Y-148555840D03*
X122210200Y-147905600D03*
X122210200Y-147255360D03*
X122210200Y-146605120D03*
X122210200Y-145954880D03*
X122210200Y-145304640D03*
X122210200Y-144654400D03*
X122210200Y-144004160D03*
X122210200Y-143353920D03*
X122210200Y-142703680D03*
%TD*%
%TO.C,R6*%
G36*
G01*
X131453000Y-136950000D02*
X135403000Y-136950000D01*
G75*
G02*
X135653000Y-137200000I0J-250000D01*
G01*
X135653000Y-139900000D01*
G75*
G02*
X135403000Y-140150000I-250000J0D01*
G01*
X131453000Y-140150000D01*
G75*
G02*
X131203000Y-139900000I0J250000D01*
G01*
X131203000Y-137200000D01*
G75*
G02*
X131453000Y-136950000I250000J0D01*
G01*
G37*
G36*
G01*
X131453000Y-142150000D02*
X135403000Y-142150000D01*
G75*
G02*
X135653000Y-142400000I0J-250000D01*
G01*
X135653000Y-145100000D01*
G75*
G02*
X135403000Y-145350000I-250000J0D01*
G01*
X131453000Y-145350000D01*
G75*
G02*
X131203000Y-145100000I0J250000D01*
G01*
X131203000Y-142400000D01*
G75*
G02*
X131453000Y-142150000I250000J0D01*
G01*
G37*
%TD*%
%TO.C,R8*%
G36*
G01*
X131403000Y-147560000D02*
X135353000Y-147560000D01*
G75*
G02*
X135603000Y-147810000I0J-250000D01*
G01*
X135603000Y-150510000D01*
G75*
G02*
X135353000Y-150760000I-250000J0D01*
G01*
X131403000Y-150760000D01*
G75*
G02*
X131153000Y-150510000I0J250000D01*
G01*
X131153000Y-147810000D01*
G75*
G02*
X131403000Y-147560000I250000J0D01*
G01*
G37*
G36*
G01*
X131403000Y-152760000D02*
X135353000Y-152760000D01*
G75*
G02*
X135603000Y-153010000I0J-250000D01*
G01*
X135603000Y-155710000D01*
G75*
G02*
X135353000Y-155960000I-250000J0D01*
G01*
X131403000Y-155960000D01*
G75*
G02*
X131153000Y-155710000I0J250000D01*
G01*
X131153000Y-153010000D01*
G75*
G02*
X131403000Y-152760000I250000J0D01*
G01*
G37*
%TD*%
%TO.C,U1*%
X114945800Y-98573680D03*
X114945800Y-99223920D03*
X114945800Y-99874160D03*
X114945800Y-100524400D03*
X114945800Y-101174640D03*
X114945800Y-101824880D03*
X114945800Y-102475120D03*
X114945800Y-103125360D03*
X114945800Y-103775600D03*
X114945800Y-104425840D03*
X114945800Y-105076080D03*
X114945800Y-105726320D03*
X122210200Y-105726320D03*
X122210200Y-105076080D03*
X122210200Y-104425840D03*
X122210200Y-103775600D03*
X122210200Y-103125360D03*
X122210200Y-102475120D03*
X122210200Y-101824880D03*
X122210200Y-101174640D03*
X122210200Y-100524400D03*
X122210200Y-99874160D03*
X122210200Y-99223920D03*
X122210200Y-98573680D03*
%TD*%
%TO.C,R6*%
G36*
G01*
X131453000Y-92820000D02*
X135403000Y-92820000D01*
G75*
G02*
X135653000Y-93070000I0J-250000D01*
G01*
X135653000Y-95770000D01*
G75*
G02*
X135403000Y-96020000I-250000J0D01*
G01*
X131453000Y-96020000D01*
G75*
G02*
X131203000Y-95770000I0J250000D01*
G01*
X131203000Y-93070000D01*
G75*
G02*
X131453000Y-92820000I250000J0D01*
G01*
G37*
G36*
G01*
X131453000Y-98020000D02*
X135403000Y-98020000D01*
G75*
G02*
X135653000Y-98270000I0J-250000D01*
G01*
X135653000Y-100970000D01*
G75*
G02*
X135403000Y-101220000I-250000J0D01*
G01*
X131453000Y-101220000D01*
G75*
G02*
X131203000Y-100970000I0J250000D01*
G01*
X131203000Y-98270000D01*
G75*
G02*
X131453000Y-98020000I250000J0D01*
G01*
G37*
%TD*%
%TO.C,R8*%
G36*
G01*
X131403000Y-103430000D02*
X135353000Y-103430000D01*
G75*
G02*
X135603000Y-103680000I0J-250000D01*
G01*
X135603000Y-106380000D01*
G75*
G02*
X135353000Y-106630000I-250000J0D01*
G01*
X131403000Y-106630000D01*
G75*
G02*
X131153000Y-106380000I0J250000D01*
G01*
X131153000Y-103680000D01*
G75*
G02*
X131403000Y-103430000I250000J0D01*
G01*
G37*
G36*
G01*
X131403000Y-108630000D02*
X135353000Y-108630000D01*
G75*
G02*
X135603000Y-108880000I0J-250000D01*
G01*
X135603000Y-111580000D01*
G75*
G02*
X135353000Y-111830000I-250000J0D01*
G01*
X131403000Y-111830000D01*
G75*
G02*
X131153000Y-111580000I0J250000D01*
G01*
X131153000Y-108880000D01*
G75*
G02*
X131403000Y-108630000I250000J0D01*
G01*
G37*
%TD*%
%TO.C,U1*%
X114875800Y-54623680D03*
X114875800Y-55273920D03*
X114875800Y-55924160D03*
X114875800Y-56574400D03*
X114875800Y-57224640D03*
X114875800Y-57874880D03*
X114875800Y-58525120D03*
X114875800Y-59175360D03*
X114875800Y-59825600D03*
X114875800Y-60475840D03*
X114875800Y-61126080D03*
X114875800Y-61776320D03*
X122140200Y-61776320D03*
X122140200Y-61126080D03*
X122140200Y-60475840D03*
X122140200Y-59825600D03*
X122140200Y-59175360D03*
X122140200Y-58525120D03*
X122140200Y-57874880D03*
X122140200Y-57224640D03*
X122140200Y-56574400D03*
X122140200Y-55924160D03*
X122140200Y-55273920D03*
X122140200Y-54623680D03*
%TD*%
%TO.C,R6*%
G36*
G01*
X131383000Y-48870000D02*
X135333000Y-48870000D01*
G75*
G02*
X135583000Y-49120000I0J-250000D01*
G01*
X135583000Y-51820000D01*
G75*
G02*
X135333000Y-52070000I-250000J0D01*
G01*
X131383000Y-52070000D01*
G75*
G02*
X131133000Y-51820000I0J250000D01*
G01*
X131133000Y-49120000D01*
G75*
G02*
X131383000Y-48870000I250000J0D01*
G01*
G37*
G36*
G01*
X131383000Y-54070000D02*
X135333000Y-54070000D01*
G75*
G02*
X135583000Y-54320000I0J-250000D01*
G01*
X135583000Y-57020000D01*
G75*
G02*
X135333000Y-57270000I-250000J0D01*
G01*
X131383000Y-57270000D01*
G75*
G02*
X131133000Y-57020000I0J250000D01*
G01*
X131133000Y-54320000D01*
G75*
G02*
X131383000Y-54070000I250000J0D01*
G01*
G37*
%TD*%
%TO.C,R8*%
G36*
G01*
X131333000Y-59480000D02*
X135283000Y-59480000D01*
G75*
G02*
X135533000Y-59730000I0J-250000D01*
G01*
X135533000Y-62430000D01*
G75*
G02*
X135283000Y-62680000I-250000J0D01*
G01*
X131333000Y-62680000D01*
G75*
G02*
X131083000Y-62430000I0J250000D01*
G01*
X131083000Y-59730000D01*
G75*
G02*
X131333000Y-59480000I250000J0D01*
G01*
G37*
G36*
G01*
X131333000Y-64680000D02*
X135283000Y-64680000D01*
G75*
G02*
X135533000Y-64930000I0J-250000D01*
G01*
X135533000Y-67630000D01*
G75*
G02*
X135283000Y-67880000I-250000J0D01*
G01*
X131333000Y-67880000D01*
G75*
G02*
X131083000Y-67630000I0J250000D01*
G01*
X131083000Y-64930000D01*
G75*
G02*
X131333000Y-64680000I250000J0D01*
G01*
G37*
%TD*%
D10*
%TO.C,U8*%
X156895800Y-147614640D03*
X156895800Y-148264880D03*
X156895800Y-148915120D03*
X156895800Y-149565360D03*
X152476200Y-149565360D03*
X152476200Y-148915120D03*
X152476200Y-148264880D03*
X152476200Y-147614640D03*
%TD*%
D12*
%TO.C,R3*%
X153924000Y-142982000D03*
X155174000Y-142982000D03*
%TD*%
%TO.C,R2*%
X153924000Y-98786000D03*
X155174000Y-98786000D03*
%TD*%
%TO.C,R1*%
X155174000Y-54590000D03*
X153924000Y-54590000D03*
%TD*%
M02*
