M48
; DRILL file {KiCad (5.1.7)-1} date 02/09/21 15:47:14
; FORMAT={-:-/ absolute / inch / decimal}
; #@! TF.CreationDate,2021-02-09T15:47:14-06:00
; #@! TF.GenerationSoftware,Kicad,Pcbnew,(5.1.7)-1
; #@! TF.FileFunction,Plated,1,2,PTH
FMAT,2
INCH
T1C0.0170
T2C0.0276
T3C0.0310
T4C0.0315
T5C0.0350
T6C0.0354
T7C0.0390
T8C0.0394
T9C0.0433
%
G90
G05
T1
X1.8984Y-4.7323
X4.408Y-2.1963
X4.4108Y-3.9266
X4.4108Y-5.664
X4.4538Y-2.1505
X4.4565Y-3.8809
X4.4565Y-5.6183
X4.7335Y-2.3088
X4.7363Y-4.0391
X4.7363Y-5.7765
X4.7391Y-2.2273
X4.7418Y-3.9577
X4.7418Y-5.6951
X4.9621Y-2.1217
X4.9649Y-3.852
X4.9649Y-5.5894
X5.158Y-1.7763
X5.1608Y-3.5066
X5.1608Y-5.244
X5.872Y-4.0976
X5.8732Y-5.837
X5.88Y-2.3576
T2
X6.3Y-2.43
X6.3Y-2.73
X6.3Y-5.91
X6.3Y-6.21
X6.3Y-4.17
X6.3Y-4.47
T3
X5.91Y-4.59
X6.3374Y-4.59
X5.91Y-6.33
X6.3374Y-6.33
X5.91Y-2.85
X6.3374Y-2.85
T4
X3.838Y-1.7163
X4.238Y-1.7163
X3.2435Y-5.2886
X3.5387Y-5.2886
X4.6294Y-5.1047
X5.0294Y-5.1047
X5.035Y-5.2386
X5.3302Y-5.2386
X4.3508Y-3.3566
X4.3508Y-3.7566
X3.2408Y-5.844
X3.8313Y-5.844
X4.498Y-1.6263
X4.498Y-1.9216
X3.2408Y-3.8066
X3.8313Y-3.8066
X4.6204Y-3.7701
X5.0204Y-3.7701
X3.238Y-2.3763
X3.8286Y-2.3763
X4.348Y-1.6263
X4.348Y-2.0263
X4.6176Y-2.0398
X5.0176Y-2.0398
X3.2407Y-1.8209
X3.536Y-1.8209
X5.0322Y-1.7709
X5.3275Y-1.7709
X3.9355Y-5.334
X4.2308Y-5.334
X4.4861Y-6.3362
X4.7814Y-6.3362
X4.598Y-6.1228
X4.6964Y-6.1228
X4.2031Y-4.2631
X4.2031Y-4.6631
X4.5008Y-3.3566
X4.5008Y-3.6519
X4.6216Y-3.6413
X5.0216Y-3.6413
X4.6188Y-1.911
X5.0188Y-1.911
X4.5952Y-2.6551
X4.6936Y-2.6551
X4.6255Y-1.5087
X5.0255Y-1.5087
X3.2265Y-6.0894
X3.5218Y-6.0894
X2.7908Y-5.8056
X2.7908Y-5.904
X4.3508Y-6.054
X4.3508Y-6.3493
X4.6204Y-5.5075
X5.0204Y-5.5075
X4.8008Y-4.2866
X5.0961Y-4.2866
X2.7524Y-3.5366
X2.8508Y-3.5366
X6.0216Y-4.38
X6.12Y-4.38
X4.6294Y-3.3673
X5.0294Y-3.3673
X2.7908Y-5.514
X2.7908Y-5.6124
X4.0208Y-4.7966
X4.4208Y-4.7966
X3.7508Y-4.3466
X3.7508Y-4.6419
X4.798Y-2.5563
X5.0933Y-2.5563
X3.238Y-2.0763
X3.8286Y-2.0763
X2.7496Y-1.8063
X2.848Y-1.8063
X4.5008Y-5.094
X4.5008Y-5.3893
X2.7524Y-5.274
X2.8508Y-5.274
X3.8408Y-5.184
X4.2408Y-5.184
X2.7908Y-4.0682
X2.7908Y-4.1666
X4.598Y-4.3854
X4.6964Y-4.3854
X4.2031Y-6.0006
X4.2031Y-6.4006
X6.03Y-2.64
X6.1284Y-2.64
X1.9381Y-3.2472
X1.9381Y-3.3259
X1.9381Y-3.4046
X3.2408Y-4.1066
X3.8313Y-4.1066
X4.2003Y-2.5328
X4.2003Y-2.9328
X2.7496Y-2.6163
X2.848Y-2.6163
X4.6267Y-1.637
X5.0267Y-1.637
X4.0208Y-6.534
X4.4208Y-6.534
X5.0708Y-6.174
X5.0708Y-6.4693
X4.4861Y-4.5988
X4.7814Y-4.5988
X6.54Y-3.81
X6.54Y-3.8887
X6.54Y-3.9675
X6.0216Y-6.12
X6.12Y-6.12
X5.0708Y-4.4366
X5.0708Y-4.7319
X2.7524Y-6.084
X2.8508Y-6.084
X4.3508Y-5.094
X4.3508Y-5.494
X3.9328Y-1.8663
X4.228Y-1.8663
X3.898Y-2.6163
X3.898Y-3.0163
X4.4834Y-2.8685
X4.7787Y-2.8685
X4.018Y-3.0663
X4.418Y-3.0663
X4.8008Y-6.024
X5.0961Y-6.024
X5.035Y-3.5012
X5.3302Y-3.5012
X3.7508Y-6.084
X3.7508Y-6.3793
X2.7524Y-4.3466
X2.8508Y-4.3466
X4.6216Y-5.3787
X5.0216Y-5.3787
X3.2265Y-4.352
X3.5218Y-4.352
X3.9008Y-6.084
X3.9008Y-6.484
X4.3508Y-4.3166
X4.3508Y-4.6119
X3.2435Y-3.5512
X3.5387Y-3.5512
X3.2238Y-2.6217
X3.5191Y-2.6217
X3.748Y-2.6163
X3.748Y-2.9116
X2.788Y-2.3379
X2.788Y-2.4363
X3.9328Y-2.0163
X4.228Y-2.0163
X3.2408Y-5.544
X3.8313Y-5.544
X4.6283Y-4.9764
X5.0283Y-4.9764
X3.9008Y-4.3466
X3.9008Y-4.7466
X3.9355Y-5.484
X4.2308Y-5.484
X1.9413Y-3.75
X1.9413Y-3.8287
X1.9413Y-3.9075
X1.9413Y-3.9862
X1.9413Y-4.065
X1.9413Y-4.1437
X1.9413Y-4.2224
X1.9413Y-4.3012
X3.8408Y-3.4466
X4.2408Y-3.4466
X2.7908Y-3.7766
X2.7908Y-3.875
X3.9355Y-3.5966
X4.2308Y-3.5966
X3.9355Y-3.7466
X4.2308Y-3.7466
X4.6283Y-3.239
X5.0283Y-3.239
X2.788Y-2.0463
X2.788Y-2.1447
X5.068Y-2.7063
X5.068Y-3.0016
X4.348Y-2.5863
X4.348Y-2.8816
T5
X2.0466Y-4.7466
X3.3318Y-5.1728
X3.5231Y-5.1728
X3.7999Y-3.0114
X3.8928Y-3.1043
X5.2483Y-2.728
X5.2511Y-4.4583
X5.2511Y-6.1957
X5.62Y-1.55
X5.6228Y-3.2803
X5.6228Y-5.0177
X5.8141Y-1.6252
X5.8168Y-3.3555
X5.8168Y-5.0929
T6
X5.6665Y-6.1957
X5.6665Y-6.4957
X4.6267Y-3.5028
X4.9267Y-3.5028
X4.6239Y-1.7724
X4.9239Y-1.7724
X4.0515Y-6.054
X4.0515Y-6.354
X5.6637Y-2.728
X5.6637Y-3.028
X4.918Y-2.7063
X4.918Y-3.0063
X4.9208Y-6.174
X4.9208Y-6.474
X5.668Y-5.139
X5.668Y-5.439
X5.668Y-3.4016
X5.668Y-3.7016
X4.0487Y-2.5863
X4.0487Y-2.8863
X4.6267Y-5.2402
X4.9267Y-5.2402
X5.6653Y-1.6713
X5.6653Y-1.9713
X4.9208Y-4.4366
X4.9208Y-4.7366
X5.6665Y-4.4583
X5.6665Y-4.7583
X4.0515Y-4.3166
X4.0515Y-4.6166
T7
X2.19Y-3.66
X2.19Y-3.76
X2.19Y-3.86
X2.19Y-3.96
X2.49Y-3.66
X2.49Y-3.76
X2.49Y-3.86
X2.49Y-3.96
X2.19Y-4.11
X2.19Y-4.21
X2.19Y-4.31
X2.19Y-4.41
X2.49Y-4.11
X2.49Y-4.21
X2.49Y-4.31
X2.49Y-4.41
T8
X5.6665Y-5.5866
X5.6665Y-6.0866
X2.9903Y-1.8224
X2.9903Y-1.9224
X2.9903Y-2.0224
X2.9903Y-2.1224
X2.9903Y-2.2224
X2.9903Y-2.3224
X2.9903Y-2.4224
X2.9903Y-2.5224
X2.9903Y-2.6224
X3.0903Y-1.8224
X3.0903Y-1.9224
X3.0903Y-2.0224
X3.0903Y-2.1224
X3.0903Y-2.2224
X3.0903Y-2.3224
X3.0903Y-2.4224
X3.0903Y-2.5224
X3.0903Y-2.6224
X5.6665Y-3.8492
X5.6665Y-4.3492
X5.6637Y-2.1189
X5.6637Y-2.6189
X2.9931Y-5.2902
X2.9931Y-5.3902
X2.9931Y-5.4902
X2.9931Y-5.5902
X2.9931Y-5.6902
X2.9931Y-5.7902
X2.9931Y-5.8902
X2.9931Y-5.9902
X2.9931Y-6.0902
X3.0931Y-5.2902
X3.0931Y-5.3902
X3.0931Y-5.4902
X3.0931Y-5.5902
X3.0931Y-5.6902
X3.0931Y-5.7902
X3.0931Y-5.8902
X3.0931Y-5.9902
X3.0931Y-6.0902
X2.9931Y-3.5528
X2.9931Y-3.6528
X2.9931Y-3.7528
X2.9931Y-3.8528
X2.9931Y-3.9528
X2.9931Y-4.0528
X2.9931Y-4.1528
X2.9931Y-4.2528
X2.9931Y-4.3528
X3.0931Y-3.5528
X3.0931Y-3.6528
X3.0931Y-3.7528
X3.0931Y-3.8528
X3.0931Y-3.9528
X3.0931Y-4.0528
X3.0931Y-4.1528
X3.0931Y-4.2528
X3.0931Y-4.3528
T9
X5.4405Y-5.0398
X5.4405Y-5.1398
X5.4405Y-5.2398
X5.4405Y-3.3024
X5.4405Y-3.4024
X5.4405Y-3.5024
X5.4377Y-2.8295
X5.4377Y-2.9295
X5.4377Y-3.0295
X5.4405Y-3.7213
X5.4405Y-3.8213
X5.4405Y-3.9213
X5.4405Y-4.5598
X5.4405Y-4.6598
X5.4405Y-4.7598
X5.4373Y-2.4098
X5.4373Y-2.5098
X5.4373Y-2.6098
X5.4401Y-4.1402
X5.4401Y-4.2402
X5.4401Y-4.3402
X5.4377Y-1.9909
X5.4377Y-2.0909
X5.4377Y-2.1909
X5.4401Y-5.8776
X5.4401Y-5.9776
X5.4401Y-6.0776
X5.4405Y-6.2972
X5.4405Y-6.3972
X5.4405Y-6.4972
X5.4377Y-1.572
X5.4377Y-1.672
X5.4377Y-1.772
X5.4405Y-5.4587
X5.4405Y-5.5587
X5.4405Y-5.6587
T0
M30
