%TF.GenerationSoftware,KiCad,Pcbnew,(5.1.7)-1*%
%TF.CreationDate,2021-02-09T15:47:09-06:00*%
%TF.ProjectId,LED-Driver-Board,4c45442d-4472-4697-9665-722d426f6172,rev?*%
%TF.SameCoordinates,Original*%
%TF.FileFunction,Soldermask,Bot*%
%TF.FilePolarity,Negative*%
%FSLAX46Y46*%
G04 Gerber Fmt 4.6, Leading zero omitted, Abs format (unit mm)*
G04 Created by KiCad (PCBNEW (5.1.7)-1) date 2021-02-09 15:47:09*
%MOMM*%
%LPD*%
G01*
G04 APERTURE LIST*
%ADD10C,1.600000*%
%ADD11O,1.600000X1.600000*%
%ADD12C,1.498600*%
%ADD13R,1.498600X1.498600*%
%ADD14R,2.000000X1.905000*%
%ADD15O,2.000000X1.905000*%
%ADD16R,1.600000X1.600000*%
%ADD17R,1.800000X1.800000*%
%ADD18O,1.800000X1.800000*%
%ADD19R,1.700000X1.700000*%
%ADD20O,1.700000X1.700000*%
%ADD21C,2.000000*%
%ADD22O,2.000000X2.000000*%
%ADD23O,1.400000X1.400000*%
%ADD24C,1.400000*%
%ADD25R,1.350000X1.350000*%
%ADD26O,1.350000X1.350000*%
%ADD27C,1.295400*%
G04 APERTURE END LIST*
D10*
%TO.C,C8*%
X82246000Y-52738000D03*
D11*
X97246000Y-52738000D03*
%TD*%
D10*
%TO.C,C8*%
X82316000Y-96688000D03*
D11*
X97316000Y-96688000D03*
%TD*%
D12*
%TO.C,U2*%
X63246000Y-104394000D03*
X63246000Y-106934000D03*
X63246000Y-109474000D03*
X63246000Y-112014000D03*
X55626000Y-112014000D03*
X55626000Y-109474000D03*
X55626000Y-106934000D03*
D13*
X55626000Y-104394000D03*
%TD*%
D14*
%TO.C,U3*%
X138178000Y-149290000D03*
D15*
X138178000Y-151830000D03*
X138178000Y-154370000D03*
%TD*%
D14*
%TO.C,U4*%
X138188000Y-128010000D03*
D15*
X138188000Y-130550000D03*
X138188000Y-133090000D03*
%TD*%
D10*
%TO.C,C2*%
X114320000Y-129388000D03*
D11*
X114320000Y-136888000D03*
%TD*%
D10*
%TO.C,R5*%
X102128000Y-165964000D03*
D11*
X112288000Y-165964000D03*
%TD*%
D14*
%TO.C,U2*%
X138188000Y-159950000D03*
D15*
X138188000Y-162490000D03*
X138188000Y-165030000D03*
%TD*%
D14*
%TO.C,U5*%
X138188000Y-138650000D03*
D15*
X138188000Y-141190000D03*
X138188000Y-143730000D03*
%TD*%
D10*
%TO.C,C7*%
X107462000Y-135484000D03*
D11*
X99962000Y-135484000D03*
%TD*%
D10*
%TO.C,C13*%
X121448000Y-160940000D03*
D11*
X113948000Y-160940000D03*
%TD*%
D10*
%TO.C,C11*%
X81954000Y-154670000D03*
D11*
X89454000Y-154670000D03*
%TD*%
D16*
%TO.C,C14*%
X70886000Y-140056000D03*
D10*
X70886000Y-142556000D03*
%TD*%
D16*
%TO.C,C15*%
X70886000Y-149962000D03*
D10*
X70886000Y-147462000D03*
%TD*%
D16*
%TO.C,C16*%
X72410000Y-133960000D03*
D10*
X69910000Y-133960000D03*
%TD*%
D16*
%TO.C,C17*%
X72410000Y-154534000D03*
D10*
X69910000Y-154534000D03*
%TD*%
%TO.C,C9*%
X82316000Y-148438000D03*
D11*
X97316000Y-148438000D03*
%TD*%
D10*
%TO.C,C1*%
X128798000Y-156820000D03*
D11*
X128798000Y-164320000D03*
%TD*%
D10*
%TO.C,C3*%
X121940000Y-153010000D03*
D11*
X129440000Y-153010000D03*
%TD*%
D10*
%TO.C,C8*%
X82316000Y-140818000D03*
D11*
X97316000Y-140818000D03*
%TD*%
D10*
%TO.C,C10*%
X82384000Y-134330000D03*
D11*
X89884000Y-134330000D03*
%TD*%
D16*
%TO.C,C12*%
X119288000Y-155520000D03*
D10*
X116788000Y-155520000D03*
%TD*%
%TO.C,C4*%
X110510000Y-153772000D03*
D11*
X110510000Y-161272000D03*
%TD*%
D10*
%TO.C,C5*%
X95270000Y-154534000D03*
D11*
X95270000Y-162034000D03*
%TD*%
D10*
%TO.C,C6*%
X107462000Y-139294000D03*
D11*
X99962000Y-139294000D03*
%TD*%
D10*
%TO.C,R11*%
X97556000Y-131674000D03*
D11*
X107716000Y-131674000D03*
%TD*%
D10*
%TO.C,R7*%
X110510000Y-129388000D03*
D11*
X110510000Y-139548000D03*
%TD*%
D10*
%TO.C,R9*%
X127748000Y-129660000D03*
D11*
X117588000Y-129660000D03*
%TD*%
D10*
%TO.C,C18*%
X135388000Y-133060000D03*
D11*
X127888000Y-133060000D03*
%TD*%
D17*
%TO.C,D3*%
X143928000Y-164990000D03*
D18*
X143928000Y-157370000D03*
%TD*%
D17*
%TO.C,D2*%
X124988000Y-156820000D03*
D18*
X124988000Y-164440000D03*
%TD*%
D10*
%TO.C,R10*%
X117558000Y-126400000D03*
D11*
X127718000Y-126400000D03*
%TD*%
D17*
%TO.C,D4*%
X143968000Y-130530000D03*
D18*
X143968000Y-138150000D03*
%TD*%
D17*
%TO.C,D1*%
X102908000Y-153772000D03*
D18*
X102908000Y-161392000D03*
%TD*%
D17*
%TO.C,D5*%
X125138000Y-133100000D03*
D18*
X117518000Y-133100000D03*
%TD*%
D19*
%TO.C,HDR1*%
X78564000Y-134370000D03*
D20*
X76024000Y-134370000D03*
X78564000Y-136910000D03*
X76024000Y-136910000D03*
X78564000Y-139450000D03*
X76024000Y-139450000D03*
X78564000Y-141990000D03*
X76024000Y-141990000D03*
X78564000Y-144530000D03*
X76024000Y-144530000D03*
X78564000Y-147070000D03*
X76024000Y-147070000D03*
X78564000Y-149610000D03*
X76024000Y-149610000D03*
X78564000Y-152150000D03*
X76024000Y-152150000D03*
X78564000Y-154690000D03*
X76024000Y-154690000D03*
%TD*%
D21*
%TO.C,L1*%
X143928000Y-154600000D03*
D22*
X143928000Y-141900000D03*
%TD*%
D10*
%TO.C,R1*%
X99080000Y-154534000D03*
D11*
X99080000Y-164694000D03*
%TD*%
D10*
%TO.C,R2*%
X106758000Y-152414000D03*
D11*
X106758000Y-162574000D03*
%TD*%
D10*
%TO.C,R4*%
X127518000Y-139890000D03*
D11*
X117358000Y-139890000D03*
%TD*%
D10*
%TO.C,R3*%
X127548000Y-136620000D03*
D11*
X117388000Y-136620000D03*
%TD*%
D14*
%TO.C,U3*%
X138178000Y-105160000D03*
D15*
X138178000Y-107700000D03*
X138178000Y-110240000D03*
%TD*%
D14*
%TO.C,U4*%
X138188000Y-83880000D03*
D15*
X138188000Y-86420000D03*
X138188000Y-88960000D03*
%TD*%
D10*
%TO.C,C2*%
X114320000Y-85258000D03*
D11*
X114320000Y-92758000D03*
%TD*%
D10*
%TO.C,R5*%
X102128000Y-121834000D03*
D11*
X112288000Y-121834000D03*
%TD*%
D14*
%TO.C,U2*%
X138188000Y-115820000D03*
D15*
X138188000Y-118360000D03*
X138188000Y-120900000D03*
%TD*%
D14*
%TO.C,U5*%
X138188000Y-94520000D03*
D15*
X138188000Y-97060000D03*
X138188000Y-99600000D03*
%TD*%
D10*
%TO.C,C7*%
X107462000Y-91354000D03*
D11*
X99962000Y-91354000D03*
%TD*%
D10*
%TO.C,C13*%
X121448000Y-116810000D03*
D11*
X113948000Y-116810000D03*
%TD*%
D10*
%TO.C,C11*%
X81954000Y-110540000D03*
D11*
X89454000Y-110540000D03*
%TD*%
D16*
%TO.C,C14*%
X70886000Y-95926000D03*
D10*
X70886000Y-98426000D03*
%TD*%
D16*
%TO.C,C15*%
X70886000Y-105832000D03*
D10*
X70886000Y-103332000D03*
%TD*%
D16*
%TO.C,C16*%
X72410000Y-89830000D03*
D10*
X69910000Y-89830000D03*
%TD*%
D16*
%TO.C,C17*%
X72410000Y-110404000D03*
D10*
X69910000Y-110404000D03*
%TD*%
%TO.C,C9*%
X82316000Y-104308000D03*
D11*
X97316000Y-104308000D03*
%TD*%
D10*
%TO.C,C1*%
X128798000Y-112690000D03*
D11*
X128798000Y-120190000D03*
%TD*%
D10*
%TO.C,C3*%
X121940000Y-108880000D03*
D11*
X129440000Y-108880000D03*
%TD*%
D10*
%TO.C,C10*%
X82384000Y-90200000D03*
D11*
X89884000Y-90200000D03*
%TD*%
D16*
%TO.C,C12*%
X119288000Y-111390000D03*
D10*
X116788000Y-111390000D03*
%TD*%
%TO.C,C4*%
X110510000Y-109642000D03*
D11*
X110510000Y-117142000D03*
%TD*%
D10*
%TO.C,C5*%
X95270000Y-110404000D03*
D11*
X95270000Y-117904000D03*
%TD*%
D10*
%TO.C,C6*%
X107462000Y-95164000D03*
D11*
X99962000Y-95164000D03*
%TD*%
D10*
%TO.C,R11*%
X97556000Y-87544000D03*
D11*
X107716000Y-87544000D03*
%TD*%
D10*
%TO.C,R7*%
X110510000Y-85258000D03*
D11*
X110510000Y-95418000D03*
%TD*%
D10*
%TO.C,R9*%
X127748000Y-85530000D03*
D11*
X117588000Y-85530000D03*
%TD*%
D10*
%TO.C,C18*%
X135388000Y-88930000D03*
D11*
X127888000Y-88930000D03*
%TD*%
D17*
%TO.C,D3*%
X143928000Y-120860000D03*
D18*
X143928000Y-113240000D03*
%TD*%
D17*
%TO.C,D2*%
X124988000Y-112690000D03*
D18*
X124988000Y-120310000D03*
%TD*%
D10*
%TO.C,R10*%
X117558000Y-82270000D03*
D11*
X127718000Y-82270000D03*
%TD*%
D17*
%TO.C,D4*%
X143968000Y-86400000D03*
D18*
X143968000Y-94020000D03*
%TD*%
D17*
%TO.C,D1*%
X102908000Y-109642000D03*
D18*
X102908000Y-117262000D03*
%TD*%
D17*
%TO.C,D5*%
X125138000Y-88970000D03*
D18*
X117518000Y-88970000D03*
%TD*%
D19*
%TO.C,HDR1*%
X78564000Y-90240000D03*
D20*
X76024000Y-90240000D03*
X78564000Y-92780000D03*
X76024000Y-92780000D03*
X78564000Y-95320000D03*
X76024000Y-95320000D03*
X78564000Y-97860000D03*
X76024000Y-97860000D03*
X78564000Y-100400000D03*
X76024000Y-100400000D03*
X78564000Y-102940000D03*
X76024000Y-102940000D03*
X78564000Y-105480000D03*
X76024000Y-105480000D03*
X78564000Y-108020000D03*
X76024000Y-108020000D03*
X78564000Y-110560000D03*
X76024000Y-110560000D03*
%TD*%
D21*
%TO.C,L1*%
X143928000Y-110470000D03*
D22*
X143928000Y-97770000D03*
%TD*%
D10*
%TO.C,R1*%
X99080000Y-110404000D03*
D11*
X99080000Y-120564000D03*
%TD*%
D10*
%TO.C,R2*%
X106758000Y-108284000D03*
D11*
X106758000Y-118444000D03*
%TD*%
D10*
%TO.C,R4*%
X127518000Y-95760000D03*
D11*
X117358000Y-95760000D03*
%TD*%
D10*
%TO.C,R3*%
X127548000Y-92490000D03*
D11*
X117388000Y-92490000D03*
%TD*%
D14*
%TO.C,U3*%
X138108000Y-61210000D03*
D15*
X138108000Y-63750000D03*
X138108000Y-66290000D03*
%TD*%
D14*
%TO.C,U4*%
X138118000Y-39930000D03*
D15*
X138118000Y-42470000D03*
X138118000Y-45010000D03*
%TD*%
D10*
%TO.C,C2*%
X114250000Y-41308000D03*
D11*
X114250000Y-48808000D03*
%TD*%
D10*
%TO.C,R5*%
X102058000Y-77884000D03*
D11*
X112218000Y-77884000D03*
%TD*%
D14*
%TO.C,U2*%
X138118000Y-71870000D03*
D15*
X138118000Y-74410000D03*
X138118000Y-76950000D03*
%TD*%
D14*
%TO.C,U5*%
X138118000Y-50570000D03*
D15*
X138118000Y-53110000D03*
X138118000Y-55650000D03*
%TD*%
D10*
%TO.C,C7*%
X107392000Y-47404000D03*
D11*
X99892000Y-47404000D03*
%TD*%
D10*
%TO.C,C13*%
X121378000Y-72860000D03*
D11*
X113878000Y-72860000D03*
%TD*%
D10*
%TO.C,C11*%
X81884000Y-66590000D03*
D11*
X89384000Y-66590000D03*
%TD*%
D16*
%TO.C,C14*%
X70816000Y-51976000D03*
D10*
X70816000Y-54476000D03*
%TD*%
D16*
%TO.C,C15*%
X70816000Y-61882000D03*
D10*
X70816000Y-59382000D03*
%TD*%
D16*
%TO.C,C16*%
X72340000Y-45880000D03*
D10*
X69840000Y-45880000D03*
%TD*%
D16*
%TO.C,C17*%
X72340000Y-66454000D03*
D10*
X69840000Y-66454000D03*
%TD*%
%TO.C,C9*%
X82246000Y-60358000D03*
D11*
X97246000Y-60358000D03*
%TD*%
D10*
%TO.C,C1*%
X128728000Y-68740000D03*
D11*
X128728000Y-76240000D03*
%TD*%
D10*
%TO.C,C3*%
X121870000Y-64930000D03*
D11*
X129370000Y-64930000D03*
%TD*%
D10*
%TO.C,C10*%
X82314000Y-46250000D03*
D11*
X89814000Y-46250000D03*
%TD*%
D16*
%TO.C,C12*%
X119218000Y-67440000D03*
D10*
X116718000Y-67440000D03*
%TD*%
%TO.C,C4*%
X110440000Y-65692000D03*
D11*
X110440000Y-73192000D03*
%TD*%
D10*
%TO.C,C5*%
X95200000Y-66454000D03*
D11*
X95200000Y-73954000D03*
%TD*%
D10*
%TO.C,C6*%
X107392000Y-51214000D03*
D11*
X99892000Y-51214000D03*
%TD*%
D10*
%TO.C,R11*%
X97486000Y-43594000D03*
D11*
X107646000Y-43594000D03*
%TD*%
D10*
%TO.C,R7*%
X110440000Y-41308000D03*
D11*
X110440000Y-51468000D03*
%TD*%
D10*
%TO.C,R9*%
X127678000Y-41580000D03*
D11*
X117518000Y-41580000D03*
%TD*%
D10*
%TO.C,C18*%
X135318000Y-44980000D03*
D11*
X127818000Y-44980000D03*
%TD*%
D17*
%TO.C,D3*%
X143858000Y-76910000D03*
D18*
X143858000Y-69290000D03*
%TD*%
D17*
%TO.C,D2*%
X124918000Y-68740000D03*
D18*
X124918000Y-76360000D03*
%TD*%
D10*
%TO.C,R10*%
X117488000Y-38320000D03*
D11*
X127648000Y-38320000D03*
%TD*%
D17*
%TO.C,D4*%
X143898000Y-42450000D03*
D18*
X143898000Y-50070000D03*
%TD*%
D17*
%TO.C,D1*%
X102838000Y-65692000D03*
D18*
X102838000Y-73312000D03*
%TD*%
D17*
%TO.C,D5*%
X125068000Y-45020000D03*
D18*
X117448000Y-45020000D03*
%TD*%
D19*
%TO.C,HDR1*%
X78494000Y-46290000D03*
D20*
X75954000Y-46290000D03*
X78494000Y-48830000D03*
X75954000Y-48830000D03*
X78494000Y-51370000D03*
X75954000Y-51370000D03*
X78494000Y-53910000D03*
X75954000Y-53910000D03*
X78494000Y-56450000D03*
X75954000Y-56450000D03*
X78494000Y-58990000D03*
X75954000Y-58990000D03*
X78494000Y-61530000D03*
X75954000Y-61530000D03*
X78494000Y-64070000D03*
X75954000Y-64070000D03*
X78494000Y-66610000D03*
X75954000Y-66610000D03*
%TD*%
D21*
%TO.C,L1*%
X143858000Y-66520000D03*
D22*
X143858000Y-53820000D03*
%TD*%
D10*
%TO.C,R1*%
X99010000Y-66454000D03*
D11*
X99010000Y-76614000D03*
%TD*%
D10*
%TO.C,R2*%
X106688000Y-64334000D03*
D11*
X106688000Y-74494000D03*
%TD*%
D10*
%TO.C,R4*%
X127448000Y-51810000D03*
D11*
X117288000Y-51810000D03*
%TD*%
D10*
%TO.C,R3*%
X127478000Y-48540000D03*
D11*
X117318000Y-48540000D03*
%TD*%
D12*
%TO.C,U1*%
X63246000Y-92964000D03*
X63246000Y-95504000D03*
X63246000Y-98044000D03*
X63246000Y-100584000D03*
X55626000Y-100584000D03*
X55626000Y-98044000D03*
X55626000Y-95504000D03*
D13*
X55626000Y-92964000D03*
%TD*%
D23*
%TO.C,R6*%
X160020000Y-150114000D03*
D24*
X160020000Y-157734000D03*
%TD*%
D23*
%TO.C,R5*%
X160020000Y-105918000D03*
D24*
X160020000Y-113538000D03*
%TD*%
D23*
%TO.C,R4*%
X160020000Y-61722000D03*
D24*
X160020000Y-69342000D03*
%TD*%
D25*
%TO.C,J3*%
X166116000Y-96774000D03*
D26*
X166116000Y-98774000D03*
X166116000Y-100774000D03*
%TD*%
%TO.C,J2*%
X49228000Y-86478000D03*
X49228000Y-84478000D03*
D25*
X49228000Y-82478000D03*
%TD*%
%TO.C,J1*%
X49308000Y-95250000D03*
D26*
X49308000Y-97250000D03*
X49308000Y-99250000D03*
X49308000Y-101250000D03*
X49308000Y-103250000D03*
X49308000Y-105250000D03*
X49308000Y-107250000D03*
X49308000Y-109250000D03*
%TD*%
D27*
%TO.C,D3*%
X160970001Y-160782000D03*
X150114000Y-160782000D03*
%TD*%
%TO.C,D2*%
X160970001Y-116586000D03*
X150114000Y-116586000D03*
%TD*%
%TO.C,D1*%
X160970001Y-72390000D03*
X150114000Y-72390000D03*
%TD*%
D10*
%TO.C,C3*%
X152948000Y-155448000D03*
X155448000Y-155448000D03*
%TD*%
%TO.C,C2*%
X152948000Y-111252000D03*
X155448000Y-111252000D03*
%TD*%
%TO.C,C1*%
X153162000Y-67056000D03*
X155662000Y-67056000D03*
%TD*%
M02*
