%TF.GenerationSoftware,KiCad,Pcbnew,(5.1.7)-1*%
%TF.CreationDate,2021-02-09T15:47:09-06:00*%
%TF.ProjectId,LED-Driver-Board,4c45442d-4472-4697-9665-722d426f6172,rev?*%
%TF.SameCoordinates,Original*%
%TF.FileFunction,Legend,Bot*%
%TF.FilePolarity,Positive*%
%FSLAX46Y46*%
G04 Gerber Fmt 4.6, Leading zero omitted, Abs format (unit mm)*
G04 Created by KiCad (PCBNEW (5.1.7)-1) date 2021-02-09 15:47:09*
%MOMM*%
%LPD*%
G01*
G04 APERTURE LIST*
%ADD10C,0.300000*%
G04 APERTURE END LIST*
D10*
X50982142Y-99242857D02*
X51196428Y-99314285D01*
X51267857Y-99385714D01*
X51339285Y-99528571D01*
X51339285Y-99742857D01*
X51267857Y-99885714D01*
X51196428Y-99957142D01*
X51053571Y-100028571D01*
X50482142Y-100028571D01*
X50482142Y-98528571D01*
X50982142Y-98528571D01*
X51125000Y-98600000D01*
X51196428Y-98671428D01*
X51267857Y-98814285D01*
X51267857Y-98957142D01*
X51196428Y-99100000D01*
X51125000Y-99171428D01*
X50982142Y-99242857D01*
X50482142Y-99242857D01*
X51317857Y-96550000D02*
X51175000Y-96478571D01*
X50960714Y-96478571D01*
X50746428Y-96550000D01*
X50603571Y-96692857D01*
X50532142Y-96835714D01*
X50460714Y-97121428D01*
X50460714Y-97335714D01*
X50532142Y-97621428D01*
X50603571Y-97764285D01*
X50746428Y-97907142D01*
X50960714Y-97978571D01*
X51103571Y-97978571D01*
X51317857Y-97907142D01*
X51389285Y-97835714D01*
X51389285Y-97335714D01*
X51103571Y-97335714D01*
X51514285Y-95953571D02*
X51014285Y-95239285D01*
X50657142Y-95953571D02*
X50657142Y-94453571D01*
X51228571Y-94453571D01*
X51371428Y-94525000D01*
X51442857Y-94596428D01*
X51514285Y-94739285D01*
X51514285Y-94953571D01*
X51442857Y-95096428D01*
X51371428Y-95167857D01*
X51228571Y-95239285D01*
X50657142Y-95239285D01*
X161945000Y-92523571D02*
X162230714Y-92523571D01*
X162373571Y-92595000D01*
X162516428Y-92737857D01*
X162587857Y-93023571D01*
X162587857Y-93523571D01*
X162516428Y-93809285D01*
X162373571Y-93952142D01*
X162230714Y-94023571D01*
X161945000Y-94023571D01*
X161802142Y-93952142D01*
X161659285Y-93809285D01*
X161587857Y-93523571D01*
X161587857Y-93023571D01*
X161659285Y-92737857D01*
X161802142Y-92595000D01*
X161945000Y-92523571D01*
X163873571Y-93023571D02*
X163873571Y-94023571D01*
X163230714Y-93023571D02*
X163230714Y-93809285D01*
X163302142Y-93952142D01*
X163445000Y-94023571D01*
X163659285Y-94023571D01*
X163802142Y-93952142D01*
X163873571Y-93880714D01*
X164373571Y-93023571D02*
X164945000Y-93023571D01*
X164587857Y-92523571D02*
X164587857Y-93809285D01*
X164659285Y-93952142D01*
X164802142Y-94023571D01*
X164945000Y-94023571D01*
X168509142Y-101238857D02*
X168723428Y-101310285D01*
X168794857Y-101381714D01*
X168866285Y-101524571D01*
X168866285Y-101738857D01*
X168794857Y-101881714D01*
X168723428Y-101953142D01*
X168580571Y-102024571D01*
X168009142Y-102024571D01*
X168009142Y-100524571D01*
X168509142Y-100524571D01*
X168652000Y-100596000D01*
X168723428Y-100667428D01*
X168794857Y-100810285D01*
X168794857Y-100953142D01*
X168723428Y-101096000D01*
X168652000Y-101167428D01*
X168509142Y-101238857D01*
X168009142Y-101238857D01*
X168794857Y-98310000D02*
X168652000Y-98238571D01*
X168437714Y-98238571D01*
X168223428Y-98310000D01*
X168080571Y-98452857D01*
X168009142Y-98595714D01*
X167937714Y-98881428D01*
X167937714Y-99095714D01*
X168009142Y-99381428D01*
X168080571Y-99524285D01*
X168223428Y-99667142D01*
X168437714Y-99738571D01*
X168580571Y-99738571D01*
X168794857Y-99667142D01*
X168866285Y-99595714D01*
X168866285Y-99095714D01*
X168580571Y-99095714D01*
X168866285Y-97452571D02*
X168366285Y-96738285D01*
X168009142Y-97452571D02*
X168009142Y-95952571D01*
X168580571Y-95952571D01*
X168723428Y-96024000D01*
X168794857Y-96095428D01*
X168866285Y-96238285D01*
X168866285Y-96452571D01*
X168794857Y-96595428D01*
X168723428Y-96666857D01*
X168580571Y-96738285D01*
X168009142Y-96738285D01*
M02*
